<svg width="389" height="841" viewBox="0 0 389 841" fill="none" xmlns="http://www.w3.org/2000/svg">
<g clip-path="url(#clip0_75_7788)">
<rect width="390" height="844" transform="translate(-1 -3)" fill="white"/>
<path d="M-1 -3H389V841H-1V-3Z" fill="#48A0F7"/>
<path d="M51.1841 150.825L-21.1968 223.206C-20.8697 225.284 -20.4272 227.304 -19.8885 229.305L57.3024 152.114C55.3014 151.595 53.262 151.152 51.1841 150.825Z" stroke="white" stroke-width="0.5" stroke-miterlimit="10"/>
<path d="M57.2832 152.115L-19.9077 229.305C-19.4075 231.21 -18.811 233.096 -18.1376 234.923L62.9013 153.885C61.0735 153.211 59.2072 152.634 57.2832 152.115Z" stroke="white" stroke-width="0.5" stroke-miterlimit="10"/>
<path d="M81.6218 164.794L-7.20935 253.625C-6.07419 254.971 -4.90056 256.261 -3.6692 257.492L85.5082 168.314C84.2576 167.102 82.9686 165.929 81.6218 164.794Z" stroke="white" stroke-width="0.5" stroke-miterlimit="10"/>
<path d="M77.4467 161.58L-10.4224 249.45C-9.4027 250.893 -8.32522 252.278 -7.19006 253.625L81.641 164.794C80.2749 163.678 78.8897 162.6 77.4467 161.58Z" stroke="white" stroke-width="0.5" stroke-miterlimit="10"/>
<path d="M68.1153 156.097L-15.925 240.137C-15.1362 241.792 -14.2704 243.389 -13.3469 244.967L72.9445 158.675C71.3861 157.752 69.7699 156.886 68.1153 156.097Z" stroke="white" stroke-width="0.5" stroke-miterlimit="10"/>
<path d="M72.9446 158.675L-13.3469 244.967C-12.4426 246.506 -11.4613 248.007 -10.4416 249.469L77.4274 161.6C75.9844 160.542 74.4838 159.58 72.9446 158.675Z" stroke="white" stroke-width="0.5" stroke-miterlimit="10"/>
<path d="M62.9205 153.904L-18.1184 234.943C-17.4642 236.713 -16.7331 238.444 -15.925 240.157L68.1153 156.116C66.4222 155.289 64.6906 154.558 62.9205 153.904Z" stroke="white" stroke-width="0.5" stroke-miterlimit="10"/>
<path d="M-17.6759 190.075L18.072 154.327C1.71805 160.734 -11.2882 173.74 -17.6759 190.075Z" stroke="white" stroke-width="0.5" stroke-miterlimit="10"/>
<path d="M18.0721 154.327L-17.6758 190.075C-19.0034 193.442 -20.0423 196.944 -20.7734 200.58L28.5772 151.229C24.9408 151.96 21.4391 153.019 18.0721 154.327Z" stroke="white" stroke-width="0.5" stroke-miterlimit="10"/>
<path d="M44.5079 150.094L-21.9279 216.53C-21.8124 218.781 -21.5623 221.013 -21.1967 223.206L51.1841 150.825C48.9908 150.46 46.7782 150.21 44.5079 150.094Z" stroke="white" stroke-width="0.5" stroke-miterlimit="10"/>
<path d="M41.0445 149.998C39.717 149.998 38.3894 150.056 37.0811 150.133L-21.8895 209.084C-21.9664 210.392 -22.0242 211.72 -22.0242 213.048C-22.0242 214.221 -21.9857 215.376 -21.9279 216.511L44.5078 150.075C43.3534 150.036 42.1989 149.998 41.0445 149.998Z" stroke="white" stroke-width="0.5" stroke-miterlimit="10"/>
<path d="M28.5579 151.229L-20.7927 200.58C-21.3507 203.351 -21.7162 206.198 -21.8894 209.084L37.062 150.133C34.176 150.306 31.3284 150.671 28.5579 151.229Z" stroke="white" stroke-width="0.5" stroke-miterlimit="10"/>
<path d="M103.19 202.446L30.4434 275.193C32.6175 275.558 34.83 275.828 37.0811 275.962L103.959 209.084C103.825 206.852 103.555 204.64 103.19 202.446Z" stroke="white" stroke-width="0.5" stroke-miterlimit="10"/>
<path d="M104.094 213.047C104.094 211.72 104.036 210.392 103.959 209.084L37.0812 275.962C38.3895 276.039 39.7171 276.097 41.0446 276.097C42.1798 276.097 43.315 276.058 44.4501 276.001L104.017 216.434C104.075 215.318 104.094 214.202 104.094 213.047Z" stroke="white" stroke-width="0.5" stroke-miterlimit="10"/>
<path d="M103.998 216.453L44.4308 276.02C47.2976 275.866 50.1067 275.52 52.858 274.981L102.959 224.88C103.498 222.129 103.863 219.32 103.998 216.453Z" stroke="white" stroke-width="0.5" stroke-miterlimit="10"/>
<path d="M102.978 224.88L52.8772 274.981C56.4174 274.308 59.8421 273.346 63.1514 272.114L100.111 235.154C101.343 231.864 102.305 228.42 102.978 224.88Z" stroke="white" stroke-width="0.5" stroke-miterlimit="10"/>
<path d="M100.111 235.154L63.1514 272.114C80.1788 265.746 93.7237 252.201 100.111 235.154Z" stroke="white" stroke-width="0.5" stroke-miterlimit="10"/>
<path d="M101.862 196.386L24.3828 273.865C26.3645 274.404 28.3847 274.846 30.4434 275.212L103.19 202.465C102.844 200.388 102.401 198.367 101.862 196.386Z" stroke="white" stroke-width="0.5" stroke-miterlimit="10"/>
<path d="M92.3 176.338L4.33472 264.303C5.77772 265.342 7.25921 266.323 8.79841 267.247L95.2437 180.801C94.3202 179.281 93.339 177.781 92.3 176.338Z" stroke="white" stroke-width="0.5" stroke-miterlimit="10"/>
<path d="M89.0484 172.182L0.178833 261.051C1.52563 262.186 2.91092 263.283 4.33468 264.303L92.3 176.338C91.261 174.914 90.1836 173.529 89.0484 172.182Z" stroke="white" stroke-width="0.5" stroke-miterlimit="10"/>
<path d="M100.054 190.806L18.7839 272.076C20.6117 272.768 22.478 273.365 24.3828 273.884L101.862 196.405C101.343 194.481 100.727 192.615 100.054 190.806Z" stroke="white" stroke-width="0.5" stroke-miterlimit="10"/>
<path d="M85.489 168.334L-3.68842 257.511C-2.45706 258.743 -1.16798 259.935 0.159585 261.071L89.0292 172.201C87.9132 170.854 86.7396 169.565 85.489 168.334Z" stroke="white" stroke-width="0.5" stroke-miterlimit="10"/>
<path d="M97.8218 185.611L13.5891 269.844C15.2822 270.652 17.0139 271.402 18.7839 272.057L100.054 190.787C99.3803 189.036 98.6491 187.304 97.8218 185.611Z" stroke="white" stroke-width="0.5" stroke-miterlimit="10"/>
<path d="M95.2245 180.801L8.77917 267.247C10.3376 268.17 11.9345 269.055 13.5892 269.844L97.8219 185.611C97.0331 183.976 96.1672 182.36 95.2245 180.801Z" stroke="white" stroke-width="0.5" stroke-miterlimit="10"/>
<path d="M323.719 300.147H320.852V303.014H323.719V300.147Z" fill="white"/>
<path d="M345.595 300.147H342.728V303.014H345.595V300.147Z" fill="white"/>
<path d="M367.451 300.147H364.584V303.014H367.451V300.147Z" fill="white"/>
<path d="M389.327 300.147H386.46V303.014H389.327V300.147Z" fill="white"/>
<path d="M323.719 316.097H320.852V318.964H323.719V316.097Z" fill="white"/>
<path d="M345.595 316.097H342.728V318.964H345.595V316.097Z" fill="white"/>
<path d="M367.451 316.097H364.584V318.964H367.451V316.097Z" fill="white"/>
<path d="M389.327 316.097H386.46V318.964H389.327V316.097Z" fill="white"/>
<path d="M323.719 332.028H320.852V334.894H323.719V332.028Z" fill="white"/>
<path d="M345.595 332.028H342.728V334.894H345.595V332.028Z" fill="white"/>
<path d="M367.451 332.028H364.584V334.894H367.451V332.028Z" fill="white"/>
<path d="M389.327 332.028H386.46V334.894H389.327V332.028Z" fill="white"/>
<path d="M323.719 347.978H320.852V350.844H323.719V347.978Z" fill="white"/>
<path d="M345.595 347.978H342.728V350.844H345.595V347.978Z" fill="white"/>
<path d="M367.451 347.978H364.584V350.844H367.451V347.978Z" fill="white"/>
<path d="M389.327 347.978H386.46V350.844H389.327V347.978Z" fill="white"/>
<path d="M323.719 363.908H320.852V366.775H323.719V363.908Z" fill="white"/>
<path d="M345.595 363.908H342.728V366.775H345.595V363.908Z" fill="white"/>
<path d="M367.451 363.908H364.584V366.775H367.451V363.908Z" fill="white"/>
<path d="M389.327 363.908H386.46V366.775H389.327V363.908Z" fill="white"/>
<path d="M323.719 379.858H320.852V382.725H323.719V379.858Z" fill="white"/>
<path d="M345.595 379.858H342.728V382.725H345.595V379.858Z" fill="white"/>
<path d="M367.451 379.858H364.584V382.725H367.451V379.858Z" fill="white"/>
<path d="M389.327 379.858H386.46V382.725H389.327V379.858Z" fill="white"/>
<path d="M323.719 395.808H320.852V398.675H323.719V395.808Z" fill="white"/>
<path d="M345.595 395.808H342.728V398.675H345.595V395.808Z" fill="white"/>
<path d="M367.451 395.808H364.584V398.675H367.451V395.808Z" fill="white"/>
<path d="M389.327 395.808H386.46V398.675H389.327V395.808Z" fill="white"/>
<path d="M-312.183 81.9076L-141.197 -176.139L-91.4421 265.323L-19.9462 29.0553L104.421 116.097L203.911 -11.3679L427.749 100.551L496.148 60.1279" stroke="white" stroke-width="0.5" stroke-miterlimit="10"/>
<path d="M-190.336 -101.969L-396.127 -59.564L-312.183 81.9077L-127.19 -45.5766L-85.2276 56.9342L-60.3502 16.6071L-2.84191 105.207L91.9921 25.9385L225.672 53.8365L283.18 -89.0974L334.493 150.306L390.443 44.5821L471.289 94.3367L496.148 60.128" stroke="white" stroke-width="0.5" stroke-miterlimit="10"/>
<path d="M-396.127 -59.5641L-233.895 -36.2452L-91.4421 265.323L104.421 116.097L-2.84189 105.207L18.9185 -36.2452L91.9921 25.9385L213.243 123.87L203.911 -11.3679L339.149 -59.5641L390.443 44.582" stroke="white" stroke-width="0.5" stroke-miterlimit="10"/>
<path d="M-60.3502 16.607L18.9185 -36.2452L104.421 116.097L225.672 53.8364" stroke="white" stroke-width="0.5" stroke-miterlimit="10"/>
<path d="M212.184 -9.3284C212.184 -4.0374 207.894 0.253141 202.603 0.253141C197.312 0.253141 193.021 -4.0374 193.021 -9.3284C193.021 -14.6194 197.312 -18.9099 202.603 -18.9099C207.894 -18.9099 212.184 -14.6194 212.184 -9.3284Z" fill="white"/>
<path d="M395.368 44.5821C395.368 47.2949 393.175 49.5075 390.443 49.5075C387.73 49.5075 385.518 47.3141 385.518 44.5821C385.518 41.8692 387.711 39.6566 390.443 39.6566C393.175 39.6759 395.368 41.8692 395.368 44.5821Z" fill="white"/>
<path d="M316.946 43.3122C316.946 46.025 314.753 48.2376 312.021 48.2376C309.308 48.2376 307.095 46.0442 307.095 43.3122C307.095 40.5993 309.289 38.3867 312.021 38.3867C314.734 38.3867 316.946 40.5993 316.946 43.3122Z" fill="white"/>
<path d="M215.628 123.312C215.628 125.217 214.089 126.737 212.204 126.737C210.299 126.737 208.779 125.198 208.779 123.312C208.779 121.427 210.318 119.887 212.204 119.887C214.089 119.868 215.628 121.407 215.628 123.312Z" fill="white"/>
<path d="M1.94897 104.495C1.94897 107.131 -0.186707 109.286 -2.84183 109.286C-5.47771 109.286 -7.63257 107.151 -7.63257 104.495C-7.63257 101.86 -5.49695 99.7046 -2.84183 99.7046C-0.186707 99.7238 1.94897 101.86 1.94897 104.495Z" fill="white"/>
<path d="M102.997 118.06C104.868 118.06 106.384 116.543 106.384 114.673C106.384 112.803 104.868 111.287 102.997 111.287C101.127 111.287 99.6111 112.803 99.6111 114.673C99.6111 116.543 101.127 118.06 102.997 118.06Z" fill="white"/>
<path d="M163.103 43.3121C164.973 43.3121 166.489 41.7961 166.489 39.9259C166.489 38.0557 164.973 36.5397 163.103 36.5397C161.233 36.5397 159.717 38.0557 159.717 39.9259C159.717 41.7961 161.233 43.3121 163.103 43.3121Z" fill="white"/>
<path d="M334.224 153.692C336.094 153.692 337.61 152.176 337.61 150.306C337.61 148.436 336.094 146.92 334.224 146.92C332.353 146.92 330.837 148.436 330.837 150.306C330.837 152.176 332.353 153.692 334.224 153.692Z" fill="white"/>
<path d="M39.0629 72.634C40.1574 72.634 41.0446 71.7467 41.0446 70.6522C41.0446 69.5578 40.1574 68.6705 39.0629 68.6705C37.9684 68.6705 37.0812 69.5578 37.0812 70.6522C37.0812 71.7467 37.9684 72.634 39.0629 72.634Z" fill="white"/>
<path d="M178.745 36.5397C178.745 36.9245 178.437 37.2323 178.053 37.2323C177.668 37.2323 177.36 36.9245 177.36 36.5397C177.36 36.1549 177.668 35.847 178.053 35.847C178.437 35.847 178.745 36.1549 178.745 36.5397Z" fill="white"/>
<path d="M153.175 67.2468C153.175 67.6316 152.867 67.9395 152.483 67.9395C152.098 67.9395 151.79 67.6316 151.79 67.2468C151.79 66.862 152.098 66.5542 152.483 66.5542C152.867 66.5542 153.175 66.862 153.175 67.2468Z" fill="white"/>
<path d="M79.1591 49.8154C79.1591 50.2002 78.8512 50.508 78.4664 50.508C78.0816 50.508 77.7738 50.2002 77.7738 49.8154C77.7738 49.4306 78.0816 49.1227 78.4664 49.1227C78.8512 49.1227 79.1591 49.4306 79.1591 49.8154Z" fill="white"/>
<path d="M8.00958 47.8336C8.00958 48.9303 7.12454 49.8154 6.02786 49.8154C4.93118 49.8154 4.04614 48.9303 4.04614 47.8336C4.04614 46.737 4.93118 45.8519 6.02786 45.8519C7.12454 45.8519 8.00958 46.737 8.00958 47.8336Z" fill="white"/>
<path d="M170.453 49.8153C170.453 50.912 169.568 51.7971 168.471 51.7971C167.374 51.7971 166.489 50.912 166.489 49.8153C166.489 48.7187 167.374 47.8336 168.471 47.8336C169.568 47.8336 170.453 48.7187 170.453 49.8153Z" fill="white"/>
<path d="M217.61 2.23477C217.61 3.33145 216.725 4.21649 215.628 4.21649C214.532 4.21649 213.647 3.33145 213.647 2.23477C213.647 1.13809 214.532 0.253052 215.628 0.253052C216.725 0.253052 217.61 1.13809 217.61 2.23477Z" fill="white"/>
<path d="M376.956 74.2502C376.956 75.3468 376.071 76.2319 374.974 76.2319C373.877 76.2319 372.992 75.3468 372.992 74.2502C372.992 73.1535 373.877 72.2684 374.974 72.2684C376.071 72.2684 376.956 73.1535 376.956 74.2502Z" fill="white"/>
<path d="M245.777 8.39163C245.777 9.48831 244.892 10.3733 243.796 10.3733C242.699 10.3733 241.814 9.48831 241.814 8.39163C241.814 7.29495 242.699 6.40991 243.796 6.40991C244.892 6.40991 245.777 7.29495 245.777 8.39163Z" fill="white"/>
<path d="M144.767 67.2467C144.767 68.3434 143.882 69.2285 142.786 69.2285C141.689 69.2285 140.804 68.3434 140.804 67.2467C140.804 66.1501 141.689 65.265 142.786 65.265C143.882 65.265 144.767 66.1501 144.767 67.2467Z" fill="white"/>
<path d="M89.183 15.1256C89.183 16.2223 88.298 17.1074 87.2013 17.1074C86.1046 17.1074 85.2196 16.2223 85.2196 15.1256C85.2196 14.029 86.1046 13.1439 87.2013 13.1439C88.298 13.1439 89.183 14.029 89.183 15.1256Z" fill="white"/>
<path d="M167.067 84.7745C167.067 85.8712 166.182 86.7562 165.085 86.7562C163.988 86.7562 163.103 85.8712 163.103 84.7745C163.103 83.6778 163.988 82.7927 165.085 82.7927C166.182 82.7927 167.067 83.6778 167.067 84.7745Z" fill="white"/>
<path d="M700.842 233.076L580.188 51.0082L545.094 362.504L494.628 195.789L406.893 257.222L336.686 167.275L178.745 246.256L130.491 217.723" stroke="white" stroke-width="0.3528" stroke-miterlimit="10"/>
<path d="M614.878 103.341L760.082 133.278L700.842 233.076L570.318 143.149L540.707 215.472L523.16 187.016L482.564 249.546L415.667 193.596L321.333 213.278L280.756 112.442L244.546 281.35L205.066 206.756L148.038 241.869L130.491 217.723" stroke="white" stroke-width="0.3528" stroke-miterlimit="10"/>
<path d="M760.082 133.278L645.604 149.729L545.094 362.504L406.893 257.222L482.564 249.546L467.211 149.729L415.667 193.596L330.106 262.706L336.686 167.275L241.256 133.278L205.066 206.756" stroke="white" stroke-width="0.3528" stroke-miterlimit="10"/>
<path d="M523.161 187.016L467.211 149.729L406.893 257.223L321.333 213.278" stroke="white" stroke-width="0.3528" stroke-miterlimit="10"/>
<path d="M280.583 116.444C282.495 116.444 284.046 114.893 284.046 112.98C284.046 111.068 282.495 109.517 280.583 109.517C278.67 109.517 277.119 111.068 277.119 112.98C277.119 114.893 278.67 116.444 280.583 116.444Z" fill="white"/>
<path d="M201.602 206.756C201.602 208.68 203.161 210.219 205.066 210.219C206.99 210.219 208.529 208.661 208.529 206.756C208.529 204.832 206.97 203.293 205.066 203.293C203.161 203.293 201.602 204.851 201.602 206.756Z" fill="white"/>
<path d="M256.937 205.852C256.937 207.776 258.495 209.315 260.4 209.315C262.324 209.315 263.863 207.757 263.863 205.852C263.863 203.928 262.305 202.389 260.4 202.389C258.495 202.389 256.937 203.947 256.937 205.852Z" fill="white"/>
<path d="M241.256 134.491C241.926 134.491 242.468 133.948 242.468 133.278C242.468 132.609 241.926 132.066 241.256 132.066C240.587 132.066 240.044 132.609 240.044 133.278C240.044 133.948 240.587 134.491 241.256 134.491Z" fill="white"/>
<path d="M146.326 242.254C146.326 242.927 146.865 243.466 147.538 243.466C148.211 243.466 148.75 242.927 148.75 242.254C148.75 241.58 148.211 241.042 147.538 241.042C146.884 241.042 146.326 241.58 146.326 242.254Z" fill="white"/>
<path d="M328.432 262.302C328.432 263.63 329.51 264.726 330.857 264.726C332.203 264.726 333.281 263.649 333.281 262.302C333.281 260.955 332.203 259.878 330.857 259.878C329.51 259.878 328.432 260.974 328.432 262.302Z" fill="white"/>
<path d="M321.333 215.818C323.203 215.818 324.719 214.302 324.719 212.432C324.719 210.562 323.203 209.046 321.333 209.046C319.463 209.046 317.947 210.562 317.947 212.432C317.947 214.302 319.463 215.818 321.333 215.818Z" fill="white"/>
<path d="M295.243 153.096C295.243 154.423 296.321 155.482 297.629 155.482C298.957 155.482 300.015 154.404 300.015 153.096C300.015 151.768 298.938 150.71 297.629 150.71C296.302 150.71 295.243 151.787 295.243 153.096Z" fill="white"/>
<path d="M363.084 203.466C363.084 204.794 364.161 205.852 365.469 205.852C366.778 205.852 367.855 204.774 367.855 203.466C367.855 202.138 366.778 201.08 365.469 201.08C364.161 201.08 363.084 202.158 363.084 203.466Z" fill="white"/>
<path d="M157.062 235.116C157.062 236.443 158.139 237.501 159.448 237.501C160.775 237.501 161.833 236.424 161.833 235.116C161.833 233.807 160.756 232.73 159.448 232.73C158.12 232.73 157.062 233.807 157.062 235.116Z" fill="white"/>
<path d="M271.559 144.938C271.559 146.265 272.637 147.324 273.945 147.324C275.272 147.324 276.331 146.246 276.331 144.938C276.331 143.61 275.253 142.552 273.945 142.552C272.637 142.552 271.559 143.63 271.559 144.938Z" fill="white"/>
<path d="M128.086 218.185C128.086 219.512 129.164 220.57 130.472 220.57C131.8 220.57 132.858 219.493 132.858 218.185C132.858 216.857 131.78 215.799 130.472 215.799C129.164 215.799 128.086 216.876 128.086 218.185Z" fill="white"/>
<path d="M242.353 281.349C242.353 282.677 243.43 283.735 244.738 283.735C246.066 283.735 247.124 282.658 247.124 281.349C247.124 280.022 246.047 278.964 244.738 278.964C243.411 278.964 242.353 280.022 242.353 281.349Z" fill="white"/>
<path d="M354.445 201.08C354.445 201.35 354.676 201.58 354.945 201.58C355.215 201.58 355.445 201.35 355.445 201.08C355.445 200.811 355.215 200.58 354.945 200.58C354.657 200.58 354.445 200.811 354.445 201.08Z" fill="white"/>
<path d="M324.219 168.218C324.219 168.488 324.45 168.718 324.719 168.718C324.988 168.718 325.219 168.488 325.219 168.218C325.219 167.949 324.988 167.718 324.719 167.718C324.431 167.737 324.219 167.949 324.219 168.218Z" fill="white"/>
<path d="M372.492 222.744C372.492 223.014 372.723 223.245 372.992 223.245C373.262 223.245 373.493 223.014 373.493 222.744C373.493 222.475 373.262 222.244 372.992 222.244C372.723 222.244 372.492 222.475 372.492 222.744Z" fill="white"/>
<path d="M360.294 210.45C360.294 211.22 360.929 211.855 361.698 211.855C362.468 211.855 363.103 211.22 363.103 210.45C363.103 209.681 362.468 209.046 361.698 209.046C360.929 209.046 360.294 209.661 360.294 210.45Z" fill="white"/>
<path d="M327.028 176.876C327.028 177.646 327.663 178.281 328.432 178.281C329.202 178.281 329.837 177.646 329.837 176.876C329.837 176.107 329.202 175.472 328.432 175.472C327.644 175.472 327.028 176.107 327.028 176.876Z" fill="white"/>
<path d="M214.589 227.689C214.589 228.459 215.224 229.094 215.994 229.094C216.763 229.094 217.398 228.459 217.398 227.689C217.398 226.92 216.763 226.285 215.994 226.285C215.205 226.285 214.589 226.92 214.589 227.689Z" fill="white"/>
<path d="M307.134 181.225C307.134 181.994 307.769 182.629 308.538 182.629C309.308 182.629 309.943 181.994 309.943 181.225C309.943 180.455 309.308 179.82 308.538 179.82C307.769 179.82 307.134 180.436 307.134 181.225Z" fill="white"/>
<path d="M378.418 222.744C378.418 223.514 379.053 224.149 379.823 224.149C380.592 224.149 381.227 223.514 381.227 222.744C381.227 221.975 380.592 221.34 379.823 221.34C379.034 221.34 378.418 221.975 378.418 222.744Z" fill="white"/>
<path d="M362.68 235.116C362.68 235.885 363.315 236.52 364.084 236.52C364.854 236.52 365.489 235.885 365.489 235.116C365.489 234.346 364.854 233.711 364.084 233.711C363.315 233.711 362.68 234.346 362.68 235.116Z" fill="white"/>
<path d="M96.7828 27.1313C96.7828 29.7672 94.6472 31.9221 91.9921 31.9221C89.3562 31.9221 87.2014 29.7864 87.2014 27.1313C87.2014 24.4762 89.337 22.3406 91.9921 22.3406C94.628 22.3406 96.7828 24.4762 96.7828 27.1313Z" fill="#FFD243"/>
<path d="M230.462 52.6244C230.462 55.2602 228.327 57.4152 225.672 57.4152C223.036 57.4152 220.881 55.2795 220.881 52.6244C220.881 49.9885 223.017 47.8336 225.672 47.8336C228.327 47.8336 230.462 49.9692 230.462 52.6244Z" fill="#FFD243"/>
<path d="M64.8637 51.2199C66.7339 51.2199 68.25 49.7038 68.25 47.8336C68.25 45.9635 66.7339 44.4474 64.8637 44.4474C62.9936 44.4474 61.4775 45.9635 61.4775 47.8336C61.4775 49.7038 62.9936 51.2199 64.8637 51.2199Z" fill="#FFD243"/>
<path d="M172.127 246.102C172.127 249.834 175.147 252.855 178.88 252.855C182.613 252.855 185.633 249.834 185.633 246.102C185.633 242.369 182.613 239.349 178.88 239.349C175.147 239.349 172.127 242.369 172.127 246.102Z" fill="#FFD243"/>
<path d="M337.61 175.472C341.34 175.472 344.363 172.448 344.363 168.719C344.363 164.989 341.34 161.965 337.61 161.965C333.88 161.965 330.857 164.989 330.857 168.719C330.857 172.448 333.88 175.472 337.61 175.472Z" fill="#FFD243"/>
</g>
<defs>
<clipPath id="clip0_75_7788">
<rect width="390" height="844" fill="white" transform="translate(-1 -3)"/>
</clipPath>
</defs>
</svg>
