<svg width="40" height="40" viewBox="0 0 40 40" fill="none" xmlns="http://www.w3.org/2000/svg">
<circle cx="20" cy="20" r="20" fill="#FFD243"/>
<path fill-rule="evenodd" clip-rule="evenodd" d="M16.6125 11C12.4082 11 9 14.4082 9 18.6125C9 28.0625 21.6 29.9 21.6 29.9V26.225H22.3875C26.5918 26.225 30 22.8168 30 18.6125C30 14.4082 26.5918 11 22.3875 11H16.6125ZM19.5 20.1875C20.2249 20.1875 20.8125 19.5999 20.8125 18.875C20.8125 18.1501 20.2249 17.5625 19.5 17.5625C18.7751 17.5625 18.1875 18.1501 18.1875 18.875C18.1875 19.5999 18.7751 20.1875 19.5 20.1875ZM25.0125 18.875C25.0125 19.5999 24.4249 20.1875 23.7 20.1875C22.9751 20.1875 22.3875 19.5999 22.3875 18.875C22.3875 18.1501 22.9751 17.5625 23.7 17.5625C24.4249 17.5625 25.0125 18.1501 25.0125 18.875ZM15.3 20.1875C16.0249 20.1875 16.6125 19.5999 16.6125 18.875C16.6125 18.1501 16.0249 17.5625 15.3 17.5625C14.5751 17.5625 13.9875 18.1501 13.9875 18.875C13.9875 19.5999 14.5751 20.1875 15.3 20.1875Z" fill="#29A9FF"/>
</svg>
