<svg width="40" height="40" viewBox="0 0 40 40" fill="none" xmlns="http://www.w3.org/2000/svg">
<circle cx="20" cy="20" r="20" fill="#FFD243"/>
<path d="M11.8 23.9909H14.6C15.318 23.9909 15.9097 24.5314 15.9906 25.2277L16 25.3909V28.1909C16 28.9089 15.4595 29.5007 14.7633 29.5815L14.6 29.5909H11.8C11.082 29.5909 10.4903 29.0505 10.4094 28.3542L10.4 28.1909V25.3909C10.4 24.673 10.9405 24.0812 11.6367 24.0004L11.8 23.9909ZM28.6 25.3909C29.3732 25.3909 30 26.0177 30 26.7909C30 27.5642 29.3732 28.1909 28.6 28.1909H20.2C19.4268 28.1909 18.8 27.5642 18.8 26.7909C18.8 26.0177 19.4268 25.3909 20.2 25.3909H28.6ZM14.6 25.3909H11.8V28.1909H14.6V25.3909ZM14.6 16.9909C15.3732 16.9909 16 17.6178 16 18.3909V21.1909C16 21.9641 15.3732 22.5909 14.6 22.5909H11.8C11.0268 22.5909 10.4 21.9641 10.4 21.1909V18.3909C10.4 17.6178 11.0268 16.9909 11.8 16.9909H14.6ZM28.6 18.3909C29.3732 18.3909 30 19.0178 30 19.7909C30 20.5089 29.4596 21.1007 28.7633 21.1815L28.6 21.1909H20.2C19.4268 21.1909 18.8 20.5641 18.8 19.7909C18.8 19.073 19.3405 18.4812 20.0367 18.4004L20.2 18.3909H28.6ZM14.6 18.3909H11.8V21.1909H14.6V18.3909ZM15.6845 10.3075C16.0573 10.6803 16.0912 11.2636 15.7862 11.6747L15.6845 11.7925L12.1925 15.2845C11.9956 15.4814 11.7285 15.5921 11.45 15.5921C11.2272 15.5921 11.0117 15.5213 10.8336 15.3921L10.7075 15.2845L9.30754 13.8845C8.89749 13.4745 8.89749 12.8097 9.30754 12.3996C9.68031 12.0268 10.2636 11.9929 10.6747 12.2979L10.7925 12.3996L11.45 13.0571L14.1996 10.3075C14.6096 9.89749 15.2745 9.89749 15.6845 10.3075ZM28.6 11.3909C29.3732 11.3909 30 12.0178 30 12.7909C30 13.5089 29.4596 14.1007 28.7633 14.1815L28.6 14.1909H20.2C19.4268 14.1909 18.8 13.5641 18.8 12.7909C18.8 12.073 19.3405 11.4812 20.0367 11.4004L20.2 11.3909H28.6Z" fill="#29A9FF"/>
</svg>
