<svg width="40" height="40" viewBox="0 0 40 40" fill="none" xmlns="http://www.w3.org/2000/svg">
<circle cx="20" cy="20" r="20" fill="#FFD243"/>
<path d="M15.2297 8V10.9482H18.1778V11.0366C13.1659 11.7442 9.33331 16.078 9.33331 21.2668C9.33331 26.9567 13.9619 31.5854 19.6519 31.5854C25.3419 31.5854 29.9705 26.9567 29.9705 21.2668C29.9705 19.9401 29.6757 18.7019 29.2335 17.5815L26.5506 18.7019C26.8749 19.5568 27.0223 20.3823 27.0223 21.2962C27.0223 25.3942 23.7499 28.6667 19.6519 28.6667C15.5539 28.6667 12.2815 25.3942 12.2815 21.2962C12.2815 17.1983 15.5539 13.9258 19.6519 13.9258C20.5364 13.9258 21.3913 14.0732 22.2463 14.3975L23.2487 11.6262C22.5706 11.3904 21.863 11.2725 21.126 11.1545V10.9777H24.0742V8.02948H15.2297V8ZM29.9705 11.4199C29.9705 11.4199 19.2097 19.7042 18.6495 20.2644C18.0894 20.854 18.0894 21.709 18.6495 22.2986C19.2097 22.8883 20.0941 22.8883 20.6838 22.2986C21.2734 21.709 30 11.4199 30 11.4199H29.9705Z" fill="#29A9FF"/>
</svg>
