<svg width="389" height="843" viewBox="0 0 389 843" fill="none" xmlns="http://www.w3.org/2000/svg">
<g clip-path="url(#clip0_75_4960)">
<rect width="390" height="844" transform="translate(-1 -1)" fill="white"/>
<rect x="-1" y="-1" width="390" height="844" fill="#48A0F7"/>
<path d="M173.586 614.654L125.005 663.235C125.236 664.62 125.525 665.986 125.871 667.333L177.665 615.539C176.338 615.173 174.972 614.884 173.586 614.654Z" stroke="white" stroke-width="0.25" stroke-miterlimit="10"/>
<path d="M177.684 615.519L125.89 667.313C126.237 668.602 126.621 669.853 127.083 671.084L181.456 616.712C180.224 616.27 178.974 615.866 177.684 615.519Z" stroke="white" stroke-width="0.25" stroke-miterlimit="10"/>
<path d="M194.019 624.043L134.395 683.667C135.145 684.572 135.934 685.437 136.761 686.265L196.597 626.428C195.789 625.582 194.923 624.793 194.019 624.043Z" stroke="white" stroke-width="0.25" stroke-miterlimit="10"/>
<path d="M191.21 621.869L132.24 680.839C132.932 681.801 133.644 682.744 134.395 683.648L194.019 624.023C193.115 623.273 192.172 622.561 191.21 621.869Z" stroke="white" stroke-width="0.25" stroke-miterlimit="10"/>
<path d="M184.957 618.194L128.565 674.586C129.084 675.702 129.681 676.78 130.296 677.818L188.209 619.906C187.151 619.31 186.073 618.713 184.957 618.194Z" stroke="white" stroke-width="0.25" stroke-miterlimit="10"/>
<path d="M188.19 619.925L130.277 677.838C130.893 678.877 131.547 679.877 132.22 680.858L191.191 621.888C190.229 621.176 189.228 620.522 188.19 619.925Z" stroke="white" stroke-width="0.25" stroke-miterlimit="10"/>
<path d="M181.456 616.712L127.083 671.084C127.526 672.277 128.026 673.432 128.565 674.586L184.957 618.194C183.822 617.655 182.648 617.155 181.456 616.712Z" stroke="white" stroke-width="0.25" stroke-miterlimit="10"/>
<path d="M127.372 640.993L151.364 617.001C140.397 621.311 131.662 630.026 127.372 640.993Z" stroke="white" stroke-width="0.25" stroke-miterlimit="10"/>
<path d="M151.364 617.001L127.372 640.993C126.487 643.263 125.775 645.611 125.294 648.035L158.406 614.923C155.982 615.423 153.615 616.116 151.364 617.001Z" stroke="white" stroke-width="0.25" stroke-miterlimit="10"/>
<path d="M169.103 614.172L124.524 658.752C124.601 660.272 124.775 661.772 125.005 663.234L173.586 614.653C172.124 614.403 170.623 614.249 169.103 614.172Z" stroke="white" stroke-width="0.25" stroke-miterlimit="10"/>
<path d="M166.776 614.096C165.871 614.096 164.986 614.134 164.101 614.192L124.544 653.749C124.486 654.634 124.448 655.519 124.448 656.424C124.448 657.212 124.467 657.982 124.505 658.752L169.084 614.173C168.334 614.115 167.564 614.096 166.776 614.096Z" stroke="white" stroke-width="0.25" stroke-miterlimit="10"/>
<path d="M158.406 614.923L125.294 648.035C124.928 649.901 124.678 651.806 124.563 653.749L164.12 614.192C162.177 614.307 160.272 614.557 158.406 614.923Z" stroke="white" stroke-width="0.25" stroke-miterlimit="10"/>
<path d="M208.488 649.305L159.657 698.136C161.119 698.386 162.6 698.559 164.101 698.655L208.988 653.768C208.911 652.248 208.738 650.767 208.488 649.305Z" stroke="white" stroke-width="0.25" stroke-miterlimit="10"/>
<path d="M209.103 656.424C209.103 655.538 209.065 654.653 209.007 653.768L164.12 698.655C165.005 698.713 165.89 698.752 166.775 698.752C167.545 698.752 168.295 698.732 169.065 698.694L209.046 658.713C209.084 657.943 209.103 657.174 209.103 656.424Z" stroke="white" stroke-width="0.25" stroke-miterlimit="10"/>
<path d="M209.046 658.694L169.065 698.675C170.989 698.578 172.874 698.328 174.722 697.982L208.353 664.35C208.699 662.503 208.93 660.618 209.046 658.694Z" stroke="white" stroke-width="0.25" stroke-miterlimit="10"/>
<path d="M208.353 664.35L174.722 697.982C177.088 697.539 179.397 696.885 181.609 696.058L206.41 671.258C207.256 669.045 207.891 666.736 208.353 664.35Z" stroke="white" stroke-width="0.25" stroke-miterlimit="10"/>
<path d="M206.429 671.258L181.629 696.058C193.057 691.767 202.138 682.686 206.429 671.258Z" stroke="white" stroke-width="0.25" stroke-miterlimit="10"/>
<path d="M207.603 645.226L155.597 697.232C156.925 697.597 158.291 697.905 159.676 698.136L208.507 649.305C208.257 647.919 207.968 646.573 207.603 645.226Z" stroke="white" stroke-width="0.25" stroke-miterlimit="10"/>
<path d="M201.177 631.777L142.148 690.805C143.11 691.498 144.111 692.152 145.15 692.768L203.158 634.759C202.542 633.74 201.869 632.758 201.177 631.777Z" stroke="white" stroke-width="0.25" stroke-miterlimit="10"/>
<path d="M199.002 628.987L139.358 688.631C140.263 689.401 141.186 690.132 142.148 690.805L201.177 631.777C200.484 630.815 199.772 629.892 199.002 628.987Z" stroke="white" stroke-width="0.25" stroke-miterlimit="10"/>
<path d="M206.391 641.474L151.865 696C153.096 696.462 154.346 696.866 155.616 697.212L207.622 645.207C207.256 643.956 206.852 642.705 206.391 641.474Z" stroke="white" stroke-width="0.25" stroke-miterlimit="10"/>
<path d="M196.617 626.409L136.78 686.246C137.608 687.073 138.473 687.862 139.358 688.631L199.002 628.987C198.233 628.102 197.444 627.236 196.617 626.409Z" stroke="white" stroke-width="0.25" stroke-miterlimit="10"/>
<path d="M204.89 637.992L148.363 694.519C149.498 695.057 150.652 695.558 151.845 696L206.371 641.474C205.929 640.3 205.448 639.127 204.89 637.992Z" stroke="white" stroke-width="0.25" stroke-miterlimit="10"/>
<path d="M203.158 634.779L145.15 692.787C146.189 693.403 147.266 693.999 148.382 694.538L204.909 638.011C204.351 636.895 203.774 635.818 203.158 634.779Z" stroke="white" stroke-width="0.25" stroke-miterlimit="10"/>
<path d="M273.346 455V476.087" stroke="white" stroke-width="0.3881" stroke-miterlimit="10"/>
<path d="M262.802 465.544H283.889" stroke="white" stroke-width="0.3881" stroke-miterlimit="10"/>
<path d="M330.777 455V476.087" stroke="white" stroke-width="0.3881" stroke-miterlimit="10"/>
<path d="M320.253 465.544H341.321" stroke="white" stroke-width="0.3881" stroke-miterlimit="10"/>
<path d="M388.228 455V476.087" stroke="white" stroke-width="0.3881" stroke-miterlimit="10"/>
<path d="M377.685 465.544H398.772" stroke="white" stroke-width="0.3881" stroke-miterlimit="10"/>
<path d="M273.346 498.752V519.82" stroke="white" stroke-width="0.3881" stroke-miterlimit="10"/>
<path d="M262.802 509.276H283.889" stroke="white" stroke-width="0.3881" stroke-miterlimit="10"/>
<path d="M330.777 498.752V519.82" stroke="white" stroke-width="0.3881" stroke-miterlimit="10"/>
<path d="M320.253 509.276H341.321" stroke="white" stroke-width="0.3881" stroke-miterlimit="10"/>
<path d="M388.228 498.752V519.82" stroke="white" stroke-width="0.3881" stroke-miterlimit="10"/>
<path d="M377.685 509.276H398.772" stroke="white" stroke-width="0.3881" stroke-miterlimit="10"/>
<path d="M273.346 542.484V563.571" stroke="white" stroke-width="0.3881" stroke-miterlimit="10"/>
<path d="M262.802 553.028H283.889" stroke="white" stroke-width="0.3881" stroke-miterlimit="10"/>
<path d="M330.777 542.484V563.571" stroke="white" stroke-width="0.3881" stroke-miterlimit="10"/>
<path d="M320.253 553.028H341.321" stroke="white" stroke-width="0.3881" stroke-miterlimit="10"/>
<path d="M388.228 542.484V563.571" stroke="white" stroke-width="0.3881" stroke-miterlimit="10"/>
<path d="M377.685 553.028H398.772" stroke="white" stroke-width="0.3881" stroke-miterlimit="10"/>
<path d="M273.346 586.236V607.304" stroke="white" stroke-width="0.3881" stroke-miterlimit="10"/>
<path d="M262.802 596.76H283.889" stroke="white" stroke-width="0.3881" stroke-miterlimit="10"/>
<path d="M330.777 586.236V607.304" stroke="white" stroke-width="0.3881" stroke-miterlimit="10"/>
<path d="M320.253 596.76H341.321" stroke="white" stroke-width="0.3881" stroke-miterlimit="10"/>
<path d="M388.228 586.236V607.304" stroke="white" stroke-width="0.3881" stroke-miterlimit="10"/>
<path d="M377.685 596.76H398.772" stroke="white" stroke-width="0.3881" stroke-miterlimit="10"/>
<path d="M-582.584 743.542L-411.598 485.495L-361.843 926.957L-290.348 690.69L-165.98 777.732L-66.4902 650.267L157.348 762.186L225.746 721.763" stroke="white" stroke-width="0.5" stroke-miterlimit="10"/>
<path d="M-460.737 559.666L-666.528 602.071L-582.584 743.542L-397.591 616.058L-355.629 718.569L-330.752 678.242L-273.243 766.842L-178.409 687.573L-44.7299 715.471L12.7785 572.537L64.0915 811.941L120.041 706.217L200.888 755.971L225.746 721.763" stroke="white" stroke-width="0.5" stroke-miterlimit="10"/>
<path d="M-666.528 602.071L-504.297 625.389L-361.844 926.957L-165.98 777.732L-273.243 766.842L-251.483 625.389L-178.409 687.573L-57.159 785.505L-66.4903 650.267L68.7476 602.071L120.042 706.217" stroke="white" stroke-width="0.5" stroke-miterlimit="10"/>
<path d="M17.9349 573.307C17.9349 576.02 15.7415 578.232 13.0094 578.232C10.2966 578.232 8.08398 576.039 8.08398 573.307C8.08398 570.594 10.2773 568.381 13.0094 568.381C15.7415 568.401 17.9349 570.594 17.9349 573.307Z" fill="white"/>
<path d="M124.967 706.217C124.967 708.93 122.773 711.142 120.041 711.142C117.329 711.142 115.116 708.949 115.116 706.217C115.116 703.504 117.309 701.291 120.041 701.291C122.773 701.31 124.967 703.504 124.967 706.217Z" fill="white"/>
<path d="M46.5447 704.947C46.5447 707.66 44.3514 709.872 41.6193 709.872C38.9064 709.872 36.6938 707.679 36.6938 704.947C36.6938 702.234 38.8872 700.021 41.6193 700.021C44.3321 700.021 46.5447 702.234 46.5447 704.947Z" fill="white"/>
<path d="M70.4793 602.071C70.4793 603.013 69.7097 603.783 68.7669 603.783C67.8241 603.783 67.0546 603.013 67.0546 602.071C67.0546 601.128 67.8241 600.358 68.7669 600.358C69.7097 600.358 70.4793 601.128 70.4793 602.071Z" fill="white"/>
<path d="M203.293 756.529C203.293 757.472 202.523 758.242 201.581 758.242C200.638 758.242 199.868 757.472 199.868 756.529C199.868 755.587 200.638 754.817 201.581 754.817C202.523 754.798 203.293 755.567 203.293 756.529Z" fill="white"/>
<path d="M184.707 749.795C186.577 749.795 188.093 748.279 188.093 746.409C188.093 744.539 186.577 743.023 184.707 743.023C182.837 743.023 181.321 744.539 181.321 746.409C181.321 748.279 182.837 749.795 184.707 749.795Z" fill="white"/>
<path d="M22.437 622.003C24.3072 622.003 25.8232 620.487 25.8232 618.617C25.8232 616.747 24.3072 615.231 22.437 615.231C20.5669 615.231 19.0508 616.747 19.0508 618.617C19.0508 620.487 20.5669 622.003 22.437 622.003Z" fill="white"/>
<path d="M225.746 725.803C227.616 725.803 229.132 724.287 229.132 722.417C229.132 720.547 227.616 719.031 225.746 719.031C223.876 719.031 222.36 720.547 222.36 722.417C222.36 724.287 223.876 725.803 225.746 725.803Z" fill="white"/>
<path d="M63.8222 815.327C65.6924 815.327 67.2085 813.811 67.2085 811.94C67.2085 810.07 65.6924 808.554 63.8222 808.554C61.9521 808.554 60.436 810.07 60.436 811.94C60.436 813.811 61.9521 815.327 63.8222 815.327Z" fill="white"/>
<path d="M106.554 735.885C106.554 736.981 105.669 737.867 104.573 737.867C103.476 737.867 102.591 736.981 102.591 735.885C102.591 734.788 103.476 733.903 104.573 733.903C105.669 733.903 106.554 734.788 106.554 735.885Z" fill="white"/>
<path d="M430.44 894.711L309.786 712.643L274.693 1024.14L224.226 857.424L136.492 918.857L66.2849 828.91L-91.6563 907.89L-139.91 879.357" stroke="white" stroke-width="0.3528" stroke-miterlimit="10"/>
<path d="M344.476 764.976L489.68 794.913L430.44 894.711L299.916 804.783L270.306 877.106L252.759 848.65L212.163 911.18L145.265 855.231L50.9314 874.913L10.3542 774.076L-25.8554 942.984L-65.336 868.391L-122.363 903.504L-139.91 879.357" stroke="white" stroke-width="0.3528" stroke-miterlimit="10"/>
<path d="M489.68 794.913L375.202 811.363L274.693 1024.14L136.492 918.857L212.163 911.18L196.809 811.363L145.265 855.23L59.7049 924.341L66.2849 828.91L-29.1454 794.913L-65.3359 868.391" stroke="white" stroke-width="0.3528" stroke-miterlimit="10"/>
<path d="M252.759 848.65L196.809 811.363L136.492 918.857L50.9314 874.913" stroke="white" stroke-width="0.3528" stroke-miterlimit="10"/>
<path d="M10.1811 778.078C12.0937 778.078 13.6443 776.528 13.6443 774.615C13.6443 772.702 12.0937 771.152 10.1811 771.152C8.2684 771.152 6.7179 772.702 6.7179 774.615C6.7179 776.528 8.2684 778.078 10.1811 778.078Z" fill="white"/>
<path d="M306.112 712.643C306.112 715.279 308.247 717.414 310.883 717.414C313.519 717.414 315.655 715.279 315.655 712.643C315.655 710.007 313.519 707.871 310.883 707.871C308.247 707.871 306.112 710.007 306.112 712.643Z" fill="white"/>
<path d="M295.626 804.61C295.626 806.476 297.146 807.996 299.012 807.996C300.878 807.996 302.398 806.476 302.398 804.61C302.398 802.744 300.878 801.224 299.012 801.224C297.146 801.224 295.626 802.744 295.626 804.61Z" fill="white"/>
<path d="M24.842 814.73C24.842 816.058 25.9195 817.116 27.2278 817.116C28.5553 817.116 29.6135 816.039 29.6135 814.73C29.6135 813.403 28.5361 812.344 27.2278 812.344C25.9002 812.344 24.842 813.422 24.842 814.73Z" fill="white"/>
<path d="M194.346 811.363C194.346 812.691 195.424 813.749 196.732 813.749C198.06 813.749 199.118 812.672 199.118 811.363C199.118 810.055 198.04 808.978 196.732 808.978C195.424 808.978 194.346 810.036 194.346 811.363Z" fill="white"/>
<path d="M1.15759 806.573C1.15759 807.9 2.23501 808.958 3.54333 808.958C4.87089 808.958 5.92908 807.881 5.92908 806.573C5.92908 805.245 4.85165 804.187 3.54333 804.187C2.23501 804.187 1.15759 805.264 1.15759 806.573Z" fill="white"/>
<path d="M356.828 845.264C356.828 846.746 358.04 847.958 359.522 847.958C361.003 847.958 362.215 846.746 362.215 845.264C362.215 843.783 361.003 842.571 359.522 842.571C358.04 842.571 356.828 843.783 356.828 845.264Z" fill="white"/>
<path d="M53.8174 829.853C53.8174 830.122 54.0482 830.353 54.3176 830.353C54.5869 830.353 54.8178 830.122 54.8178 829.853C54.8178 829.584 54.5869 829.353 54.3176 829.353C54.029 829.372 53.8174 829.584 53.8174 829.853Z" fill="white"/>
<path d="M246.583 831.758C246.583 832.527 247.218 833.162 247.988 833.162C248.757 833.162 249.392 832.527 249.392 831.758C249.392 830.988 248.757 830.353 247.988 830.353C247.199 830.353 246.583 830.988 246.583 831.758Z" fill="white"/>
<path d="M56.6265 838.511C56.6265 839.281 57.2614 839.915 58.031 839.915C58.8006 839.915 59.4355 839.281 59.4355 838.511C59.4355 837.741 58.8006 837.106 58.031 837.106C57.2422 837.106 56.6265 837.741 56.6265 838.511Z" fill="white"/>
<path d="M36.7323 842.859C36.7323 843.629 37.3672 844.264 38.1368 844.264C38.9064 844.264 39.5413 843.629 39.5413 842.859C39.5413 842.089 38.9064 841.455 38.1368 841.455C37.3672 841.455 36.7323 842.07 36.7323 842.859Z" fill="white"/>
<path d="M364.621 811.363C364.621 812.133 365.255 812.768 366.025 812.768C366.795 812.768 367.43 812.133 367.43 811.363C367.43 810.594 366.795 809.959 366.025 809.959C365.236 809.959 364.621 810.594 364.621 811.363Z" fill="white"/>
<path d="M149.516 634.19C151.762 624.632 145.835 615.062 136.277 612.816C126.719 610.569 117.149 616.497 114.903 626.055C112.656 635.613 118.583 645.183 128.142 647.429C137.7 649.676 147.269 643.748 149.516 634.19Z" fill="#FFD243"/>
<path d="M150.037 607.477C152.066 607.477 153.711 605.832 153.711 603.802C153.711 601.773 152.066 600.127 150.037 600.127C148.007 600.127 146.362 601.773 146.362 603.802C146.362 605.832 148.007 607.477 150.037 607.477Z" fill="#FFD243"/>
<path d="M166.737 761.974C166.737 767.265 162.447 771.556 157.156 771.556C151.865 771.556 147.574 767.265 147.574 761.974C147.574 756.683 151.865 752.393 157.156 752.393C162.447 752.412 166.737 756.683 166.737 761.974Z" fill="#FFD243"/>
<path d="M371.22 811.363C371.22 815.096 374.24 818.117 377.973 818.117C381.706 818.117 384.726 815.096 384.726 811.363C384.726 807.631 381.706 804.61 377.973 804.61C374.24 804.61 371.22 807.631 371.22 811.363Z" fill="#FFD243"/>
<path d="M67.2085 837.106C70.9382 837.106 73.9617 834.083 73.9617 830.353C73.9617 826.623 70.9382 823.6 67.2085 823.6C63.4787 823.6 60.4552 826.623 60.4552 830.353C60.4552 834.083 63.4787 837.106 67.2085 837.106Z" fill="#FFD243"/>
<path d="M385.184 81.8253L312.803 154.206C313.13 156.284 313.573 158.304 314.112 160.305L391.302 83.1144C389.301 82.5949 387.262 82.1524 385.184 81.8253Z" stroke="white" stroke-width="0.5" stroke-miterlimit="10"/>
<path d="M391.283 83.1144L314.092 160.305C314.593 162.21 315.189 164.095 315.862 165.923L396.901 84.8844C395.073 84.211 393.207 83.6339 391.283 83.1144Z" stroke="white" stroke-width="0.5" stroke-miterlimit="10"/>
<path d="M415.622 95.7936L326.791 184.625C327.926 185.971 329.1 187.261 330.331 188.492L419.508 99.3145C418.258 98.1024 416.969 96.9287 415.622 95.7936Z" stroke="white" stroke-width="0.5" stroke-miterlimit="10"/>
<path d="M411.447 92.5804L323.578 180.45C324.597 181.893 325.675 183.278 326.81 184.625L415.641 95.7936C414.275 94.6776 412.89 93.6002 411.447 92.5804Z" stroke="white" stroke-width="0.5" stroke-miterlimit="10"/>
<path d="M402.115 87.097L318.075 171.137C318.864 172.792 319.73 174.389 320.653 175.967L406.945 89.6752C405.386 88.7517 403.77 87.8859 402.115 87.097Z" stroke="white" stroke-width="0.5" stroke-miterlimit="10"/>
<path d="M406.944 89.6752L320.653 175.967C321.557 177.506 322.539 179.006 323.558 180.469L411.427 92.5997C409.984 91.5415 408.484 90.5795 406.944 89.6752Z" stroke="white" stroke-width="0.5" stroke-miterlimit="10"/>
<path d="M396.921 84.9037L315.882 165.943C316.536 167.713 317.267 169.444 318.075 171.157L402.115 87.1163C400.422 86.289 398.691 85.5578 396.921 84.9037Z" stroke="white" stroke-width="0.5" stroke-miterlimit="10"/>
<path d="M316.324 121.075L352.072 85.327C335.718 91.7339 322.712 104.74 316.324 121.075Z" stroke="white" stroke-width="0.5" stroke-miterlimit="10"/>
<path d="M352.072 85.327L316.324 121.075C314.997 124.442 313.958 127.944 313.227 131.58L362.577 82.2293C358.941 82.9604 355.439 84.0187 352.072 85.327Z" stroke="white" stroke-width="0.5" stroke-miterlimit="10"/>
<path d="M378.508 81.0942L312.072 147.53C312.187 149.781 312.438 152.013 312.803 154.206L385.184 81.8253C382.991 81.4597 380.778 81.2096 378.508 81.0942Z" stroke="white" stroke-width="0.5" stroke-miterlimit="10"/>
<path d="M375.045 80.998C373.717 80.998 372.389 81.0557 371.081 81.1326L312.111 140.084C312.034 141.392 311.976 142.72 311.976 144.047C311.976 145.221 312.014 146.375 312.072 147.511L378.508 81.0749C377.353 81.0364 376.199 80.998 375.045 80.998Z" stroke="white" stroke-width="0.5" stroke-miterlimit="10"/>
<path d="M362.558 82.2293L313.207 131.58C312.649 134.35 312.284 137.198 312.111 140.084L371.062 81.1326C368.176 81.3058 365.328 81.6714 362.558 82.2293Z" stroke="white" stroke-width="0.5" stroke-miterlimit="10"/>
<path d="M437.19 133.446L364.443 206.193C366.617 206.558 368.83 206.828 371.081 206.962L437.959 140.084C437.825 137.852 437.555 135.64 437.19 133.446Z" stroke="white" stroke-width="0.5" stroke-miterlimit="10"/>
<path d="M438.094 144.047C438.094 142.72 438.036 141.392 437.959 140.084L371.081 206.962C372.389 207.039 373.717 207.097 375.044 207.097C376.18 207.097 377.315 207.058 378.45 207.001L438.017 147.434C438.075 146.318 438.094 145.202 438.094 144.047Z" stroke="white" stroke-width="0.5" stroke-miterlimit="10"/>
<path d="M437.998 147.453L378.431 207.02C381.298 206.866 384.107 206.52 386.858 205.981L436.959 155.88C437.498 153.129 437.863 150.32 437.998 147.453Z" stroke="white" stroke-width="0.5" stroke-miterlimit="10"/>
<path d="M436.978 155.88L386.877 205.981C390.417 205.308 393.842 204.346 397.151 203.114L434.111 166.154C435.343 162.864 436.305 159.42 436.978 155.88Z" stroke="white" stroke-width="0.5" stroke-miterlimit="10"/>
<path d="M435.862 127.386L358.383 204.865C360.365 205.404 362.385 205.846 364.443 206.212L437.19 133.465C436.844 131.388 436.401 129.367 435.862 127.386Z" stroke="white" stroke-width="0.5" stroke-miterlimit="10"/>
<path d="M426.3 107.338L338.335 195.303C339.778 196.342 341.259 197.323 342.798 198.247L429.244 111.801C428.32 110.281 427.339 108.781 426.3 107.338Z" stroke="white" stroke-width="0.5" stroke-miterlimit="10"/>
<path d="M423.048 103.182L334.179 192.051C335.526 193.186 336.911 194.283 338.335 195.303L426.3 107.338C425.261 105.914 424.183 104.529 423.048 103.182Z" stroke="white" stroke-width="0.5" stroke-miterlimit="10"/>
<path d="M434.054 121.806L352.784 203.076C354.612 203.768 356.478 204.365 358.383 204.884L435.862 127.405C435.343 125.481 434.727 123.615 434.054 121.806Z" stroke="white" stroke-width="0.5" stroke-miterlimit="10"/>
<path d="M419.489 99.3337L330.312 188.511C331.543 189.743 332.832 190.935 334.16 192.071L423.029 103.201C421.913 101.854 420.74 100.565 419.489 99.3337Z" stroke="white" stroke-width="0.5" stroke-miterlimit="10"/>
<path d="M431.822 116.611L347.589 200.844C349.282 201.652 351.014 202.402 352.784 203.057L434.054 121.787C433.38 120.036 432.649 118.304 431.822 116.611Z" stroke="white" stroke-width="0.5" stroke-miterlimit="10"/>
<path d="M429.224 111.801L342.779 198.247C344.337 199.17 345.934 200.055 347.589 200.844L431.822 116.611C431.033 114.976 430.167 113.36 429.224 111.801Z" stroke="white" stroke-width="0.5" stroke-miterlimit="10"/>
<path d="M21.8751 112.359V133.427" stroke="white" stroke-width="0.3881" stroke-miterlimit="10"/>
<path d="M11.3317 122.883H32.4187" stroke="white" stroke-width="0.3881" stroke-miterlimit="10"/>
<path d="M79.3258 112.359V133.427" stroke="white" stroke-width="0.3881" stroke-miterlimit="10"/>
<path d="M68.7822 122.883H89.8693" stroke="white" stroke-width="0.3881" stroke-miterlimit="10"/>
<path d="M136.757 112.359V133.427" stroke="white" stroke-width="0.3881" stroke-miterlimit="10"/>
<path d="M126.233 122.883H147.301" stroke="white" stroke-width="0.3881" stroke-miterlimit="10"/>
<path d="M21.8751 156.092V177.179" stroke="white" stroke-width="0.3881" stroke-miterlimit="10"/>
<path d="M11.3317 166.635H32.4187" stroke="white" stroke-width="0.3881" stroke-miterlimit="10"/>
<path d="M79.3258 156.092V177.179" stroke="white" stroke-width="0.3881" stroke-miterlimit="10"/>
<path d="M68.7822 166.635H89.8693" stroke="white" stroke-width="0.3881" stroke-miterlimit="10"/>
<path d="M136.757 156.092V177.179" stroke="white" stroke-width="0.3881" stroke-miterlimit="10"/>
<path d="M126.233 166.635H147.301" stroke="white" stroke-width="0.3881" stroke-miterlimit="10"/>
<path d="M21.8751 199.843V220.911" stroke="white" stroke-width="0.3881" stroke-miterlimit="10"/>
<path d="M11.3317 210.387H32.4187" stroke="white" stroke-width="0.3881" stroke-miterlimit="10"/>
<path d="M79.3258 199.843V220.911" stroke="white" stroke-width="0.3881" stroke-miterlimit="10"/>
<path d="M68.7822 210.387H89.8693" stroke="white" stroke-width="0.3881" stroke-miterlimit="10"/>
<path d="M136.757 199.843V220.911" stroke="white" stroke-width="0.3881" stroke-miterlimit="10"/>
<path d="M126.233 210.387H147.301" stroke="white" stroke-width="0.3881" stroke-miterlimit="10"/>
<path d="M21.8751 243.576V264.663" stroke="white" stroke-width="0.3881" stroke-miterlimit="10"/>
<path d="M11.3317 254.12H32.4187" stroke="white" stroke-width="0.3881" stroke-miterlimit="10"/>
<path d="M79.3258 243.576V264.663" stroke="white" stroke-width="0.3881" stroke-miterlimit="10"/>
<path d="M68.7822 254.12H89.8693" stroke="white" stroke-width="0.3881" stroke-miterlimit="10"/>
<path d="M136.757 243.576V264.663" stroke="white" stroke-width="0.3881" stroke-miterlimit="10"/>
<path d="M126.233 254.12H147.301" stroke="white" stroke-width="0.3881" stroke-miterlimit="10"/>
<path d="M21.8174 12.9076L192.803 -245.139L242.558 196.323L314.054 -39.9447L438.421 47.0971L537.911 -80.3679L761.749 31.5512L830.148 -8.8721" stroke="white" stroke-width="0.5" stroke-miterlimit="10"/>
<path d="M143.664 -170.969L-62.1267 -128.564L21.8174 12.9076L206.81 -114.577L248.772 -12.0659L273.65 -52.393L331.158 36.2073L425.992 -43.0616L559.672 -15.1636L617.18 -158.098L668.493 81.3058L724.443 -24.418L805.289 25.3366L830.148 -8.87211" stroke="white" stroke-width="0.5" stroke-miterlimit="10"/>
<path d="M-62.1267 -128.564L100.105 -105.245L242.558 196.323L438.421 47.0971L331.158 36.2072L352.919 -105.245L425.992 -43.0616L547.243 54.87L537.911 -80.3679L673.149 -128.564L724.443 -24.418" stroke="white" stroke-width="0.5" stroke-miterlimit="10"/>
<path d="M273.65 -52.393L352.919 -105.245L438.421 47.0971L559.672 -15.1636" stroke="white" stroke-width="0.5" stroke-miterlimit="10"/>
<path d="M21.8174 12.9076L105.761 26.3756L91.4662 -35.0962" stroke="white" stroke-width="0.5" stroke-miterlimit="10"/>
<path d="M248.773 -12.0659L164.694 31.4742L270.668 103.413L331.158 36.2072L248.773 -12.0659Z" stroke="white" stroke-width="0.5" stroke-miterlimit="10"/>
<path d="M227.801 82.4987C231.541 82.4987 234.573 79.4665 234.573 75.7262C234.573 71.9859 231.541 68.9537 227.801 68.9537C224.061 68.9537 221.028 71.9859 221.028 75.7262C221.028 79.4665 224.061 82.4987 227.801 82.4987Z" fill="white"/>
<path d="M281.365 101.392C281.365 106.683 277.075 110.974 271.784 110.974C266.493 110.974 262.202 106.683 262.202 101.392C262.202 96.1014 266.493 91.8109 271.784 91.8109C277.075 91.8109 281.365 96.1206 281.365 101.392Z" fill="white"/>
<path d="M335.949 35.4954C335.949 38.1313 333.813 40.2861 331.158 40.2861C328.522 40.2861 326.367 38.1505 326.367 35.4954C326.367 32.8595 328.503 30.7046 331.158 30.7046C333.813 30.7238 335.949 32.8595 335.949 35.4954Z" fill="white"/>
<path d="M265.588 14.9663C267.458 14.9663 268.974 13.4502 268.974 11.58C268.974 9.70988 267.458 8.19385 265.588 8.19385C263.718 8.19385 262.202 9.70988 262.202 11.58C262.202 13.4502 263.718 14.9663 265.588 14.9663Z" fill="white"/>
<path d="M169.465 31.7628C169.465 34.3987 167.33 36.5536 164.674 36.5536C162.039 36.5536 159.884 34.418 159.884 31.7628C159.884 29.127 162.019 26.972 164.674 26.972C167.33 26.972 169.465 29.1077 169.465 31.7628Z" fill="white"/>
<path d="M243.135 201.113C245.781 201.113 247.926 198.968 247.926 196.323C247.926 193.677 245.781 191.532 243.135 191.532C240.489 191.532 238.344 193.677 238.344 196.323C238.344 198.968 240.489 201.113 243.135 201.113Z" fill="white"/>
<path d="M111.149 26.3756C111.149 29.3578 108.744 31.7628 105.762 31.7628C102.779 31.7628 100.374 29.3578 100.374 26.3756C100.374 23.3934 102.779 20.9884 105.762 20.9884C108.725 20.9884 111.149 23.3934 111.149 26.3756Z" fill="white"/>
<path d="M27.2047 13.581C27.2047 16.5632 24.7997 18.9682 21.8175 18.9682C18.8353 18.9682 16.4303 16.5632 16.4303 13.581C16.4303 10.5988 18.8353 8.19385 21.8175 8.19385C24.7997 8.19385 27.2047 10.5988 27.2047 13.581Z" fill="#FFD243"/>
<path d="M93.9675 45.6733C93.9675 46.77 93.0824 47.655 91.9857 47.655C90.8891 47.655 90.004 46.77 90.004 45.6733C90.004 44.5766 90.8891 43.6916 91.9857 43.6916C93.0824 43.6916 93.9675 44.5766 93.9675 45.6733Z" fill="white"/>
<path d="M298.989 15.7744C298.989 16.8711 298.104 17.7561 297.007 17.7561C295.91 17.7561 295.025 16.8711 295.025 15.7744C295.025 14.6777 295.91 13.7926 297.007 13.7926C298.104 13.7926 298.989 14.6777 298.989 15.7744Z" fill="white"/>
<path d="M153.842 32.7056C153.842 33.8023 152.957 34.6873 151.861 34.6873C150.764 34.6873 149.879 33.8023 149.879 32.7056C149.879 31.6089 150.764 30.7239 151.861 30.7239C152.957 30.7239 153.842 31.6089 153.842 32.7056Z" fill="white"/>
<path d="M221.028 82.4987C221.028 83.5954 220.143 84.4804 219.047 84.4804C217.95 84.4804 217.065 83.5954 217.065 82.4987C217.065 81.402 217.95 80.517 219.047 80.517C220.143 80.517 221.028 81.402 221.028 82.4987Z" fill="white"/>
<path d="M291.293 99.4106C291.293 100.507 290.408 101.392 289.311 101.392C288.215 101.392 287.329 100.507 287.329 99.4106C287.329 98.3139 288.215 97.4289 289.311 97.4289C290.408 97.4289 291.293 98.3332 291.293 99.4106Z" fill="white"/>
<path d="M373.063 3.63391C374.157 3.63391 375.044 2.74666 375.044 1.65219C375.044 0.557715 374.157 -0.329529 373.063 -0.329529C371.968 -0.329529 371.081 0.557715 371.081 1.65219C371.081 2.74666 371.968 3.63391 373.063 3.63391Z" fill="white"/>
<path d="M286.117 107.588C286.117 107.972 285.809 108.28 285.425 108.28C285.04 108.28 284.732 107.972 284.732 107.588C284.732 107.203 285.04 106.895 285.425 106.895C285.809 106.895 286.117 107.203 286.117 107.588Z" fill="white"/>
<path d="M235.285 64.644C235.285 65.0288 234.977 65.3366 234.593 65.3366C234.208 65.3366 233.9 65.0288 233.9 64.644C233.9 64.2592 234.208 63.9513 234.593 63.9513C234.958 63.9321 235.285 64.2592 235.285 64.644Z" fill="white"/>
<path d="M236.671 85.1731C236.671 85.5579 236.363 85.8658 235.978 85.8658C235.593 85.8658 235.285 85.5579 235.285 85.1731C235.285 84.7883 235.593 84.4805 235.978 84.4805C236.363 84.4805 236.671 84.7883 236.671 85.1731Z" fill="white"/>
<path d="M160.596 47.655C160.596 48.0398 160.288 48.3477 159.903 48.3477C159.518 48.3477 159.21 48.0398 159.21 47.655C159.21 47.2702 159.518 46.9624 159.903 46.9624C160.288 46.9624 160.596 47.2702 160.596 47.655Z" fill="white"/>
<path d="M247.926 5.40402C255.81 5.40402 262.202 -0.987623 262.202 -8.87208C262.202 -16.7565 255.81 -23.1481 247.926 -23.1481C240.042 -23.1481 233.65 -16.7565 233.65 -8.87208C233.65 -0.987623 240.042 5.40402 247.926 5.40402Z" fill="#FFD243"/>
<path d="M300.701 206.212C300.701 213.446 294.833 219.295 287.618 219.295C280.384 219.295 274.535 213.427 274.535 206.212C274.535 198.978 280.403 193.129 287.618 193.129C294.833 193.129 300.701 198.978 300.701 206.212Z" fill="#FFD243"/>
</g>
<defs>
<clipPath id="clip0_75_4960">
<rect width="390" height="844" fill="white" transform="translate(-1 -1)"/>
</clipPath>
</defs>
</svg>
