<svg width="57" height="66" viewBox="0 0 57 66" fill="none" xmlns="http://www.w3.org/2000/svg">
<path d="M26.5214 26.1284H30.0727V30.7767H26.5214V26.1284Z" fill="#FFBC0E"/>
<path d="M30.0728 31.0659H26.5214C26.4454 31.0659 26.3726 31.0357 26.3189 30.982C26.2652 30.9283 26.235 30.8554 26.235 30.7795V26.1341C26.235 26.0581 26.2652 25.9853 26.3189 25.9315C26.3726 25.8778 26.4454 25.8477 26.5214 25.8477H30.0728C30.1487 25.8477 30.2216 25.8778 30.2753 25.9315C30.329 25.9853 30.3592 26.0581 30.3592 26.1341V30.7852C30.3577 30.8602 30.3268 30.9316 30.2733 30.984C30.2197 31.0365 30.1477 31.0659 30.0728 31.0659ZM26.8078 30.4931H29.7864V26.4205H26.8078V30.4931Z" fill="#093F68"/>
<path d="M25.031 55.9755C24.759 55.9787 24.4949 55.8836 24.2873 55.7077C24.0797 55.5317 23.9426 55.2868 23.9011 55.0179L20.3447 31.7668C20.2993 31.4705 20.3736 31.1683 20.551 30.9268C20.7285 30.6852 20.9947 30.524 21.291 30.4787C21.5873 30.4334 21.8895 30.5076 22.131 30.6851C22.3726 30.8625 22.5338 31.1287 22.5791 31.425L26.161 54.6761C26.1835 54.8228 26.1768 54.9725 26.1414 55.1167C26.106 55.2608 26.0426 55.3966 25.9547 55.5162C25.8668 55.6358 25.7562 55.737 25.6292 55.8139C25.5023 55.8907 25.3614 55.9418 25.2147 55.9642C25.1538 55.9728 25.0924 55.9765 25.031 55.9755Z" fill="white"/>
<path d="M31.7483 55.9757H31.6184C31.4709 55.9588 31.3282 55.9131 31.1984 55.8411C31.0686 55.7691 30.9543 55.6722 30.862 55.556C30.7696 55.4398 30.7011 55.3065 30.6603 55.1638C30.6195 55.0211 30.6071 54.8717 30.6241 54.7243C31.4517 47.5521 32.7257 35.8319 32.6805 34.4223C32.6215 34.1661 32.6537 33.8974 32.7714 33.6624C32.8892 33.4274 33.0852 33.2408 33.3258 33.1347C33.5663 33.0287 33.8363 33.0098 34.0892 33.0814C34.3422 33.1529 34.5623 33.3105 34.7116 33.5268C35.0393 33.9986 35.1381 34.1398 33.9997 44.795C33.4602 49.8571 32.8698 54.9333 32.8698 54.9842C32.836 55.2578 32.7034 55.5096 32.4968 55.6923C32.2902 55.8749 32.024 55.9757 31.7483 55.9757Z" fill="white"/>
<path d="M14.5498 23.0982V23.1325C12.5793 22.7172 13.4958 25.1574 11.7144 24.2781C10.8351 23.8571 10.4714 25.9965 9.6523 25.4781L2.82737 13.246C2.82737 13.246 0.407288 11.2612 0.292728 9.55999C0.178168 7.85877 1.77056 6.17474 2.61544 6.40959C3.1195 6.55279 5.03552 9.58004 5.03552 9.58004C5.42503 6.9022 6.08661 6.89933 6.62791 7.28884C7.16921 7.67834 6.45034 11.5619 6.45034 11.5619L8.38641 14.1682L13.9741 21.7005C14.2853 22.1078 14.4838 22.5898 14.5498 23.0982Z" fill="#FFDC0A"/>
<path d="M27.497 54.1435C27.497 54.1435 19.5253 52.587 19.4603 53.3638C19.3954 54.1406 19.7202 60.5021 19.7202 60.5021C19.7202 60.5021 12.0932 64.601 13.2683 65.1207C14.4435 65.6405 27.497 63.2281 27.497 63.2281V54.1435Z" fill="white"/>
<path d="M13.9294 65.3354C13.6863 65.3503 13.4425 65.3226 13.209 65.2534C13.1504 65.232 13.0993 65.1938 13.0622 65.1436C13.025 65.0933 13.0034 65.0333 13 64.971C13 64.7902 12.9774 64.3184 16.3446 62.2676C17.7711 61.4004 19.2174 60.6094 19.5705 60.4174C19.5282 59.6038 19.2542 54.0898 19.3163 53.3553C19.3204 53.3163 19.3325 53.2786 19.352 53.2445C19.3714 53.2105 19.3978 53.1809 19.4293 53.1576C20.1666 52.5926 26.3049 53.7649 27.5252 54.005C27.5589 54.011 27.5893 54.0288 27.611 54.0552C27.6328 54.0816 27.6444 54.1149 27.6439 54.1491V63.2337C27.6439 63.2677 27.632 63.3007 27.6104 63.327C27.5887 63.3533 27.5586 63.3712 27.5252 63.3778C26.3275 63.5925 16.7994 65.3354 13.9294 65.3354ZM20.2626 53.2847C19.8954 53.2847 19.6638 53.3186 19.6016 53.392C19.5423 54.1378 19.8643 60.4315 19.8671 60.4964C19.8678 60.5238 19.861 60.5508 19.8476 60.5747C19.8342 60.5986 19.8146 60.6184 19.7909 60.632C16.5819 62.358 13.274 64.4484 13.2938 64.9597C13.2938 64.9597 13.2938 64.9766 13.3277 64.9879C14.2429 65.3947 23.6439 63.7874 27.3529 63.1066V54.2649C24.5337 53.7169 21.562 53.2847 20.2626 53.2847Z" fill="#231F20"/>
<path d="M28.3727 54.1435C28.3727 54.1435 36.3443 52.587 36.4093 53.3638C36.4743 54.1406 36.1494 60.5021 36.1494 60.5021C36.1494 60.5021 43.7764 64.601 42.6013 65.1207C41.4262 65.6405 28.3727 63.2281 28.3727 63.2281V54.1435Z" fill="white"/>
<path d="M41.9403 65.3354C39.0731 65.3354 29.5422 63.5925 28.3445 63.3721C28.3111 63.3656 28.281 63.3477 28.2593 63.3214C28.2377 63.2951 28.2258 63.2621 28.2258 63.2281V54.1435C28.2258 54.1094 28.2377 54.0764 28.2593 54.0502C28.281 54.0239 28.3111 54.0059 28.3445 53.9994C29.5676 53.7621 35.689 52.587 36.4404 53.1519C36.4727 53.1745 36.4996 53.2039 36.5192 53.2381C36.5387 53.2723 36.5504 53.3104 36.5534 53.3497C36.6155 54.087 36.3415 59.601 36.2992 60.4117C37.5816 61.1038 42.9036 64.036 42.8697 64.9653C42.8663 65.0277 42.8447 65.0877 42.8076 65.1379C42.7704 65.1882 42.7193 65.2264 42.6607 65.2478C42.4275 65.3189 42.1837 65.3485 41.9403 65.3354ZM28.5168 63.1066C32.2258 63.7874 41.6268 65.3919 42.542 64.9879C42.5646 64.9879 42.5787 64.9682 42.5787 64.9597C42.5985 64.4484 39.2907 62.358 36.0817 60.6321C36.0575 60.6189 36.0376 60.5992 36.0241 60.5752C36.0106 60.5512 36.0041 60.524 36.0054 60.4965C36.0054 60.4315 36.3274 54.1378 36.2653 53.3779C35.9828 53.0503 32.1269 53.5644 28.5168 54.2649V63.1066Z" fill="#231F20"/>
<path d="M9.90723 25.8648C9.76141 25.8608 9.62 25.814 9.50054 25.7302C9.46031 25.7054 9.42685 25.6709 9.40317 25.63L2.60115 13.4408C2.25747 13.1544 0.118058 11.2842 0.0063622 9.58869C-0.076694 8.34571 0.667947 7.14855 1.39254 6.56143C1.85365 6.18911 2.31761 6.04305 2.68993 6.14902C3.13386 6.27503 4.12194 7.68126 4.87517 8.82113C5.10143 7.67553 5.41361 7.08268 5.86039 6.89079C6.01698 6.83396 6.18595 6.82019 6.34967 6.85092C6.5134 6.88165 6.66587 6.95575 6.79119 7.0655C7.36399 7.47791 7.02604 9.96674 6.75396 11.5018L14.2004 21.5402C14.5379 21.9844 14.7549 22.5082 14.8305 23.061V23.0953C14.8364 23.1405 14.8314 23.1865 14.816 23.2294C14.8006 23.2723 14.7752 23.3109 14.7418 23.342C14.7085 23.3731 14.6682 23.3958 14.6244 23.4082C14.5805 23.4205 14.5343 23.4223 14.4896 23.4132C13.7192 23.2529 13.5502 23.5679 13.3154 24.009C13.0805 24.45 12.7426 25.103 11.597 24.5474C11.4108 24.4586 11.2533 24.6133 10.9039 25.0916C10.6633 25.4152 10.3397 25.862 9.90723 25.8648ZM9.86141 25.2749C9.9817 25.3121 10.1048 25.209 10.4342 24.7565C10.7636 24.304 11.1874 23.7168 11.8404 24.0319C12.4934 24.3469 12.5794 24.1808 12.8171 23.7455C13.0261 23.3531 13.3269 22.7774 14.1975 22.8089C14.1061 22.4776 13.9525 22.1666 13.745 21.8925L6.21839 11.7539C6.19488 11.7222 6.17816 11.686 6.16929 11.6476C6.16042 11.6091 6.15958 11.5693 6.16684 11.5305C6.47615 9.81208 6.66231 7.80728 6.45324 7.52088C6.22698 7.36335 6.12674 7.40345 6.09524 7.41777C5.95204 7.48078 5.58831 7.81873 5.32482 9.63738C5.31672 9.6957 5.29084 9.75011 5.25071 9.79319C5.21057 9.83628 5.15813 9.86594 5.10053 9.87815C5.04293 9.89036 4.98296 9.88452 4.9288 9.86142C4.87464 9.83832 4.82891 9.79909 4.79784 9.74907C3.93864 8.38294 2.82168 6.82778 2.53242 6.69604C2.38948 6.69262 2.24736 6.71856 2.11484 6.77226C1.98233 6.82595 1.86224 6.90626 1.762 7.00822C1.38742 7.31654 1.0871 7.70527 0.883318 8.14555C0.679539 8.58583 0.577539 9.06636 0.584891 9.55145C0.687995 11.1095 2.99066 13.014 3.01357 13.0341C3.04153 13.0572 3.06486 13.0854 3.0823 13.1171L9.86141 25.2749Z" fill="#232323"/>
<path d="M3.88419 12.2035C3.82829 12.2037 3.77356 12.1876 3.72674 12.157C3.67992 12.1265 3.64306 12.0829 3.6207 12.0317C3.26843 11.2126 3.25124 10.5482 3.56628 10.0555C4.0188 9.34527 4.9811 9.3109 5.0212 9.30804C5.09716 9.30538 5.17106 9.333 5.22665 9.38483C5.28224 9.43666 5.31497 9.50845 5.31762 9.58441C5.32028 9.66037 5.29266 9.73427 5.24083 9.78987C5.189 9.84546 5.11721 9.87818 5.04125 9.88084C5.04125 9.88084 4.33384 9.91234 4.04744 10.3677C3.84123 10.6914 3.8756 11.1725 4.14481 11.7997C4.17455 11.8693 4.17558 11.9477 4.14768 12.018C4.11978 12.0883 4.06521 12.1447 3.99589 12.1749C3.96126 12.1927 3.92309 12.2025 3.88419 12.2035Z" fill="#232323"/>
<path d="M42.0842 23.0982V23.1325C44.0547 22.7172 43.1382 25.1574 44.9196 24.2781C45.7988 23.8571 46.1626 25.9965 46.9817 25.4781L53.8066 13.246C53.8066 13.246 56.2267 11.2612 56.3413 9.55999C56.4558 7.85877 54.8634 6.17474 54.0185 6.40959C53.5145 6.55279 51.5985 9.58004 51.5985 9.58004C51.209 6.9022 50.5474 6.89933 50.0061 7.28884C49.4648 7.67834 50.1836 11.5619 50.1836 11.5619L48.2476 14.1682L42.6599 21.7005C42.3487 22.1078 42.1502 22.5898 42.0842 23.0982Z" fill="#FFDC0A"/>
<path d="M46.7269 25.8649C46.2945 25.8649 45.9708 25.4152 45.736 25.0916C45.3866 24.6104 45.2291 24.4586 45.0429 24.5474C43.8973 25.103 43.545 24.4443 43.3245 24.009C43.104 23.5737 42.9207 23.25 42.1503 23.4133C42.1056 23.4223 42.0594 23.4206 42.0155 23.4082C41.9717 23.3958 41.9314 23.3731 41.8981 23.342C41.8647 23.3109 41.8393 23.2723 41.8239 23.2294C41.8085 23.1865 41.8035 23.1406 41.8094 23.0954V23.061C41.8852 22.507 42.1033 21.982 42.4424 21.5373L49.8888 11.5133C49.6024 9.97821 49.2759 7.50371 49.8516 7.07697C49.9769 6.96722 50.1294 6.89312 50.2931 6.86239C50.4568 6.83166 50.6258 6.84543 50.7824 6.90227C51.2292 7.09416 51.5413 7.69846 51.7676 8.83261C52.5151 7.687 53.5089 6.28651 53.9528 6.16049C54.328 6.05452 54.7891 6.20059 55.2502 6.57291C55.9748 7.14571 56.7195 8.35718 56.6364 9.60016C56.5247 11.2957 54.3853 13.1659 54.0416 13.4523L47.2195 25.63C47.1959 25.6709 47.1624 25.7054 47.1222 25.7302C47.006 25.8119 46.8688 25.8586 46.7269 25.8649ZM45.1489 23.9431C45.61 23.9431 45.9422 24.4042 46.2 24.7565C46.5293 25.209 46.6525 25.3121 46.7728 25.2749L53.5605 13.1172C53.5779 13.0854 53.6012 13.0572 53.6292 13.0341C53.6521 13.0141 55.9548 11.1066 56.0579 9.55147C56.0652 9.06638 55.9632 8.58585 55.7594 8.14557C55.5557 7.70529 55.2553 7.31656 54.8808 7.00824C54.7796 6.90305 54.6567 6.82115 54.5207 6.76822C54.3847 6.7153 54.2388 6.69263 54.0932 6.70179C53.8068 6.8278 52.6984 8.38296 51.8363 9.74909C51.8053 9.79911 51.7595 9.83834 51.7054 9.86144C51.6512 9.88454 51.5912 9.89038 51.5336 9.87817C51.476 9.86596 51.4236 9.83629 51.3835 9.79321C51.3433 9.75013 51.3174 9.69572 51.3093 9.63739C51.0459 7.81875 50.6821 7.4808 50.5389 7.41779C50.5074 7.40347 50.4072 7.36051 50.1666 7.53235C49.9633 7.81875 50.1494 9.82356 50.453 11.5219C50.4603 11.5607 50.4594 11.6005 50.4506 11.639C50.4417 11.6774 50.425 11.7136 50.4014 11.7453L42.8777 21.881C42.6687 22.1557 42.5142 22.4677 42.4223 22.8004C43.2815 22.7689 43.5937 23.3445 43.8028 23.7369C44.0405 24.1808 44.1293 24.3469 44.7794 24.0233C44.8947 23.9682 45.0212 23.9408 45.1489 23.9431Z" fill="#232323"/>
<path d="M52.75 12.2036C52.7116 12.2043 52.6734 12.1964 52.6383 12.1806C52.569 12.1504 52.5144 12.094 52.4865 12.0238C52.4586 11.9535 52.4597 11.875 52.4894 11.8055C52.7586 11.1725 52.793 10.6914 52.5868 10.3735C52.3004 9.91808 51.6015 9.88658 51.593 9.88658C51.517 9.88392 51.4452 9.85119 51.3934 9.7956C51.3416 9.74001 51.3139 9.66611 51.3166 9.59015C51.3192 9.51419 51.352 9.4424 51.4076 9.39057C51.4631 9.33874 51.537 9.31112 51.613 9.31377C51.6531 9.31377 52.6154 9.35101 53.0679 10.0613C53.383 10.5539 53.3543 11.2069 53.0135 12.0374C52.9903 12.0876 52.9531 12.13 52.9063 12.1595C52.8596 12.1889 52.8053 12.2042 52.75 12.2036Z" fill="#232323"/>
<path d="M38.9741 38.9992C38.9941 39.3228 39.0056 39.6493 39.0056 39.9816V45.363C38.2101 45.7495 37.3935 46.0909 36.5597 46.3855C31.2265 48.272 25.4076 48.272 20.0745 46.3855C19.2406 46.0909 18.424 45.7495 17.6286 45.363V39.9816C17.6286 39.6293 17.6286 39.2856 17.6658 38.9419L7.62463 24.7737L14.8706 20.0739C14.8706 20.0739 24.1585 29.0239 24.8602 29.0239H31.7739C32.4899 29.0239 41.7636 20.1455 41.7636 20.1455L49.0095 24.8482L38.9741 38.9992Z" fill="#29A9FF"/>
<path d="M28.317 48.0866C25.4755 48.0909 22.6544 47.6065 19.9771 46.6546C19.1339 46.3557 18.3078 46.0105 17.5026 45.6207C17.4544 45.5971 17.4138 45.5604 17.3854 45.5148C17.357 45.4692 17.3421 45.4166 17.3422 45.3629V39.9815C17.3422 39.6951 17.3422 39.3657 17.3737 39.0249L7.38975 24.9397C7.3676 24.908 7.35212 24.872 7.34425 24.8341C7.33637 24.7962 7.33626 24.7571 7.34392 24.7192C7.35129 24.6813 7.36625 24.6452 7.3879 24.6132C7.40956 24.5812 7.43747 24.554 7.46994 24.533L14.7159 19.8332C14.77 19.7986 14.8341 19.7832 14.898 19.7894C14.9618 19.7957 15.0218 19.8232 15.0682 19.8676C18.505 23.1669 24.1585 28.4596 24.886 28.746H31.7596C32.4899 28.4825 38.1549 23.2184 41.5774 19.9392C41.6238 19.8948 41.6837 19.8673 41.7476 19.861C41.8115 19.8548 41.8756 19.8702 41.9297 19.9048L49.1756 24.6075C49.2081 24.6284 49.236 24.6557 49.2576 24.6877C49.2793 24.7197 49.2943 24.7557 49.3016 24.7937C49.3093 24.8316 49.3092 24.8707 49.3013 24.9086C49.2934 24.9465 49.2779 24.9824 49.2558 25.0142L39.2776 39.0908C39.2948 39.4001 39.3034 39.6951 39.3034 39.9901V45.3715C39.3035 45.4252 39.2885 45.4778 39.2601 45.5234C39.2318 45.569 39.1912 45.6057 39.143 45.6293C38.3378 46.0191 37.5117 46.3643 36.6685 46.6632C33.987 47.6135 31.1619 48.095 28.317 48.0866ZM17.915 45.1825C18.6505 45.5327 19.4038 45.8444 20.1718 46.1162C25.4421 47.9797 31.192 47.9797 36.4623 46.1162C37.2303 45.8444 37.9836 45.5327 38.7191 45.1825V39.9815C38.7191 39.6664 38.7191 39.3514 38.6876 39.0163C38.6834 38.9511 38.7016 38.8864 38.7392 38.833L48.6028 24.9168L41.7979 20.5005C38.2838 23.8657 32.487 29.3102 31.7739 29.3102H24.8602C24.1614 29.3102 18.356 23.8256 14.8362 20.4318L8.03129 24.8452L17.9007 38.77C17.9375 38.8249 17.9555 38.8902 17.9522 38.9562C17.9264 39.3228 17.915 39.6578 17.915 39.9757V45.1825Z" fill="#232323"/>
<path d="M28.317 38.4692L25.4215 29.0237H31.2125L28.317 38.4692Z" fill="#232323"/>
<path d="M28.3169 38.7557C28.2534 38.7584 28.1908 38.7399 28.1389 38.7031C28.087 38.6663 28.0489 38.6132 28.0305 38.5524L25.1379 29.1011C25.125 29.0587 25.1222 29.0138 25.1297 28.9701C25.1371 28.9263 25.1547 28.8849 25.1808 28.8491C25.2072 28.813 25.2417 28.7836 25.2815 28.7632C25.3213 28.7428 25.3653 28.732 25.41 28.7317H31.201C31.2457 28.732 31.2897 28.7428 31.3295 28.7632C31.3693 28.7836 31.4037 28.813 31.4301 28.8491C31.4563 28.8849 31.4738 28.9263 31.4813 28.9701C31.4887 29.0138 31.4859 29.0587 31.4731 29.1011L28.5804 38.5524C28.5632 38.6095 28.5285 38.6598 28.4812 38.6962C28.434 38.7327 28.3766 38.7535 28.3169 38.7557ZM25.8109 29.3045L28.3169 37.4927L30.8229 29.3102L25.8109 29.3045Z" fill="#232323"/>
<path d="M27.687 30.5131C36.0339 30.5131 42.8003 23.7466 42.8003 15.3997C42.8003 7.05286 36.0339 0.286377 27.687 0.286377C19.3401 0.286377 12.5736 7.05286 12.5736 15.3997C12.5736 23.7466 19.3401 30.5131 27.687 30.5131Z" fill="#FFDC0A"/>
<path d="M27.687 30.7995C24.6412 30.7995 21.6638 29.8964 19.1314 28.2042C16.5989 26.5121 14.625 24.1069 13.4595 21.293C12.2939 18.4791 11.9889 15.3827 12.5831 12.3954C13.1773 9.40816 14.644 6.66419 16.7977 4.51049C18.9514 2.3568 21.6954 0.890112 24.6827 0.295909C27.6699 -0.298294 30.7663 0.0066725 33.5802 1.17224C36.3942 2.33782 38.7993 4.31164 40.4914 6.84412C42.1836 9.3766 43.0868 12.354 43.0868 15.3998C43.0822 19.4826 41.4583 23.397 38.5713 26.284C35.6842 29.1711 31.7699 30.795 27.687 30.7995ZM27.687 0.572809C24.7545 0.572809 21.8879 1.44239 19.4496 3.0716C17.0113 4.70081 15.1109 7.01646 13.9887 9.72574C12.8665 12.435 12.5728 15.4162 13.1449 18.2924C13.717 21.1685 15.1292 23.8104 17.2028 25.884C19.2763 27.9576 21.9183 29.3697 24.7944 29.9418C27.6706 30.5139 30.6518 30.2203 33.361 29.0981C36.0703 27.9759 38.386 26.0755 40.0152 23.6372C41.6444 21.1989 42.514 18.3323 42.514 15.3998C42.5094 11.4688 40.9458 7.70016 38.1662 4.92055C35.3866 2.14094 31.618 0.577357 27.687 0.572809Z" fill="#232323"/>
<path d="M21.3948 12.6475C21.3948 11.2986 22.2798 10.2074 23.3738 10.2074C24.4679 10.2074 25.3528 11.2986 25.3528 12.6475" fill="#FFDC0A"/>
<path d="M25.3529 13.0771C25.2389 13.0771 25.1297 13.0318 25.0491 12.9512C24.9685 12.8707 24.9233 12.7614 24.9233 12.6475C24.9233 11.5391 24.2273 10.6426 23.3738 10.6426C22.5204 10.6426 21.8244 11.5448 21.8244 12.6475C21.8244 12.7614 21.7791 12.8707 21.6986 12.9512C21.618 13.0318 21.5087 13.0771 21.3948 13.0771C21.2809 13.0771 21.1716 13.0318 21.091 12.9512C21.0105 12.8707 20.9652 12.7614 20.9652 12.6475C20.9652 11.0637 22.0449 9.78345 23.3738 9.78345C24.7027 9.78345 25.7825 11.0694 25.7825 12.6475C25.7825 12.7614 25.7372 12.8707 25.6566 12.9512C25.5761 13.0318 25.4668 13.0771 25.3529 13.0771Z" fill="#232323"/>
<path d="M30.0354 12.6475C30.0354 11.2986 30.9204 10.2074 32.0144 10.2074C33.1085 10.2074 33.9935 11.2986 33.9935 12.6475" fill="#FFDC0A"/>
<path d="M33.9791 13.0771C33.8652 13.0771 33.7559 13.0318 33.6753 12.9512C33.5947 12.8707 33.5495 12.7614 33.5495 12.6475C33.5495 11.5391 32.8535 10.6426 32.0001 10.6426C31.1466 10.6426 30.4506 11.5448 30.4506 12.6475C30.4506 12.7614 30.4054 12.8707 30.3248 12.9512C30.2442 13.0318 30.135 13.0771 30.021 13.0771C29.9071 13.0771 29.7978 13.0318 29.7173 12.9512C29.6367 12.8707 29.5914 12.7614 29.5914 12.6475C29.5914 11.0637 30.6712 9.78345 32.0001 9.78345C33.329 9.78345 34.4087 11.0694 34.4087 12.6475C34.4087 12.7614 34.3634 12.8707 34.2829 12.9512C34.2023 13.0318 34.093 13.0771 33.9791 13.0771Z" fill="#232323"/>
<path d="M17.5685 16.8892C18.045 19.2211 19.3123 21.3169 21.1561 22.822C22.9998 24.3271 25.3069 25.1492 27.687 25.1492C30.0671 25.1492 32.3742 24.3271 34.218 22.822C36.0617 21.3169 37.3291 19.2211 37.8056 16.8892" fill="#FFDC0A"/>
<path d="M27.687 25.5784C25.2082 25.5739 22.8068 24.7153 20.887 23.1471C18.9673 21.579 17.6466 19.3972 17.1475 16.9692C17.1362 16.9139 17.1359 16.857 17.1466 16.8016C17.1574 16.7462 17.1789 16.6934 17.21 16.6464C17.2411 16.5993 17.2812 16.5588 17.328 16.5272C17.3748 16.4956 17.4273 16.4736 17.4826 16.4623C17.5378 16.451 17.5948 16.4507 17.6502 16.4615C17.7056 16.4722 17.7584 16.4937 17.8054 16.5249C17.8525 16.556 17.893 16.596 17.9246 16.6428C17.9561 16.6896 17.9782 16.7421 17.9895 16.7974C18.4463 19.0322 19.6609 21.0407 21.4279 22.4831C23.195 23.9255 25.406 24.7133 27.687 24.7133C29.968 24.7133 32.179 23.9255 33.9461 22.4831C35.7131 21.0407 36.9278 19.0322 37.3845 16.7974C37.4073 16.6857 37.4735 16.5877 37.5686 16.5249C37.6637 16.462 37.7798 16.4395 37.8915 16.4623C38.0031 16.4851 38.1012 16.5513 38.164 16.6464C38.2268 16.7414 38.2493 16.8576 38.2266 16.9692C37.7264 19.3967 36.4055 21.5779 34.4859 23.1459C32.5664 24.7138 30.1655 25.5728 27.687 25.5784Z" fill="#232323"/>
<path d="M28.317 48.0867C28.2411 48.0867 28.1682 48.0565 28.1145 48.0028C28.0608 47.9491 28.0306 47.8763 28.0306 47.8003V38.4694C28.0306 38.3934 28.0608 38.3206 28.1145 38.2669C28.1682 38.2132 28.2411 38.183 28.317 38.183C28.393 38.183 28.4658 38.2132 28.5196 38.2669C28.5733 38.3206 28.6034 38.3934 28.6034 38.4694V47.8003C28.6034 47.8763 28.5733 47.9491 28.5196 48.0028C28.4658 48.0565 28.393 48.0867 28.317 48.0867Z" fill="#232323"/>
<path d="M33.0598 44.69C33.005 44.6899 32.9513 44.674 32.9052 44.6442L31.055 43.4299C31.0156 43.4039 30.9833 43.3686 30.9608 43.3272C30.9383 43.2857 30.9264 43.2393 30.9261 43.1921V39.4918C30.9261 39.4159 30.9563 39.343 31.01 39.2893C31.0637 39.2356 31.1366 39.2054 31.2125 39.2054H34.9043C34.9802 39.2054 35.0531 39.2356 35.1068 39.2893C35.1605 39.343 35.1907 39.4159 35.1907 39.4918V43.1921C35.1904 43.2393 35.1785 43.2857 35.156 43.3272C35.1335 43.3686 35.1012 43.4039 35.0618 43.4299L33.2116 44.6442C33.1663 44.6734 33.1137 44.6893 33.0598 44.69ZM31.4989 43.0318L33.0598 44.0571L34.6179 43.0318V39.7782H31.4989V43.0318Z" fill="#232323"/>
</svg>
