<svg width="52" height="63" viewBox="0 0 52 63" fill="none" xmlns="http://www.w3.org/2000/svg">
<path d="M43.1748 49.7412H43.1098C42.811 49.7252 42.5308 49.5912 42.3306 49.3688C42.1304 49.1464 42.0266 48.8537 42.042 48.5548L43.6267 18.8518C43.6429 18.5522 43.7773 18.2712 44.0006 18.0706C44.2239 17.8701 44.5177 17.7665 44.8174 17.7826C45.1171 17.7987 45.3981 17.9332 45.5986 18.1565C45.7991 18.3798 45.9027 18.6736 45.8866 18.9733L44.3019 48.6735C44.286 48.9618 44.1604 49.233 43.9508 49.4316C43.7412 49.6302 43.4635 49.741 43.1748 49.7412Z" fill="white"/>
<path d="M5.77413 38.9052C5.21789 38.9144 4.6649 38.8186 4.14421 38.6227C2.08209 37.8148 1.41261 36.4786 1.21487 35.5154C0.491718 31.9674 4.77979 27.6398 5.27131 27.1596C5.37633 27.0516 5.50188 26.9657 5.64058 26.9069C5.77929 26.8481 5.92834 26.8177 6.07898 26.8174C6.22961 26.8171 6.37879 26.8469 6.51774 26.905C6.65669 26.9632 6.78261 27.0486 6.88808 27.1561C6.99356 27.2637 7.07646 27.3912 7.13193 27.5313C7.18739 27.6713 7.21428 27.8211 7.21103 27.9717C7.20778 28.1223 7.17446 28.2707 7.11301 28.4082C7.05156 28.5458 6.96323 28.6696 6.85321 28.7725C5.33628 30.264 3.06513 33.2922 3.42953 35.0662C3.47755 35.2979 3.62162 36.0041 4.96906 36.5323C7.40123 37.4871 12.3362 33.5973 14.8757 30.9222C15.0849 30.7192 15.3645 30.6048 15.6561 30.6031C15.9477 30.6014 16.2286 30.7125 16.4402 30.9131C16.6517 31.1138 16.7776 31.3884 16.7913 31.6796C16.8051 31.9709 16.7058 32.2562 16.5141 32.4759C15.8248 33.1793 10.2571 38.9052 5.77413 38.9052Z" fill="white"/>
<path d="M11.1894 14.7812C11.1894 14.7812 8.64702 13.5693 7.99448 15.7049C7.34195 17.8405 7.21483 24.2104 6.61597 24.9421C5.97989 25.6302 5.2965 26.273 4.5708 26.8658L7.31088 32.3092L13.3899 29.5748C13.3899 29.5748 11.2713 17.7218 11.1894 14.7812Z" fill="white"/>
<path d="M7.29675 32.4476C7.26929 32.4471 7.24247 32.4393 7.2191 32.4249C7.19573 32.4105 7.17669 32.39 7.16398 32.3657L4.42673 26.9251C4.41148 26.8957 4.40681 26.862 4.4135 26.8296C4.42018 26.7972 4.43783 26.768 4.46345 26.7471C5.18103 26.1582 5.85772 25.5211 6.48885 24.8403C6.77133 24.4957 6.96342 22.5127 7.14703 20.6031C7.33065 18.6935 7.52273 16.702 7.84194 15.6625C7.90761 15.4002 8.03094 15.1558 8.20294 14.9472C8.37495 14.7385 8.59131 14.5708 8.83627 14.4563C9.86733 14.0043 11.1837 14.623 11.2402 14.6512C11.2639 14.6625 11.284 14.6801 11.2985 14.702C11.3129 14.7239 11.3211 14.7493 11.3221 14.7755C11.4153 17.6738 13.5001 29.4307 13.5198 29.5465C13.5258 29.579 13.5208 29.6125 13.5054 29.6417C13.49 29.6709 13.4652 29.6941 13.4351 29.7075L7.35607 32.4476C7.33648 32.4515 7.31633 32.4515 7.29675 32.4476ZM4.73746 26.8968L7.36172 32.1114L13.2119 29.4787C13.0001 28.2753 11.1611 17.7726 11.034 14.8687C10.7515 14.7501 9.72609 14.3744 8.95209 14.7162C8.7464 14.8142 8.56513 14.9569 8.42147 15.1338C8.27782 15.3107 8.17538 15.5173 8.1216 15.7388C7.81087 16.7501 7.6216 18.719 7.43799 20.6229C7.2007 23.1031 7.03122 24.6398 6.71484 25.0268C6.10227 25.7002 5.44139 26.328 4.73746 26.9053V26.8968Z" fill="#231F20"/>
<path d="M25.031 55.9755C24.759 55.9787 24.4949 55.8836 24.2873 55.7077C24.0797 55.5317 23.9426 55.2868 23.9011 55.0179L20.3447 31.7668C20.2993 31.4705 20.3736 31.1683 20.551 30.9268C20.7285 30.6852 20.9947 30.524 21.291 30.4787C21.5873 30.4334 21.8895 30.5076 22.131 30.6851C22.3726 30.8625 22.5338 31.1287 22.5791 31.425L26.161 54.6761C26.1835 54.8228 26.1768 54.9725 26.1414 55.1167C26.106 55.2608 26.0426 55.3966 25.9547 55.5162C25.8668 55.6358 25.7562 55.737 25.6292 55.8139C25.5023 55.8907 25.3614 55.9418 25.2147 55.9642C25.1538 55.9728 25.0924 55.9765 25.031 55.9755Z" fill="white"/>
<path d="M31.7483 55.9757H31.6184C31.4709 55.9588 31.3282 55.9131 31.1984 55.8411C31.0686 55.7691 30.9543 55.6722 30.862 55.556C30.7696 55.4398 30.7011 55.3065 30.6603 55.1638C30.6195 55.0211 30.6071 54.8717 30.6241 54.7243C31.4517 47.5521 32.7257 35.8319 32.6805 34.4223C32.6215 34.1661 32.6537 33.8974 32.7714 33.6624C32.8892 33.4274 33.0852 33.2408 33.3258 33.1347C33.5663 33.0287 33.8363 33.0098 34.0892 33.0814C34.3422 33.1529 34.5623 33.3105 34.7116 33.5268C35.0393 33.9986 35.1381 34.1398 33.9997 44.795C33.4602 49.8571 32.8698 54.9333 32.8698 54.9842C32.836 55.2578 32.7034 55.5096 32.4968 55.6923C32.2902 55.8749 32.024 55.9757 31.7483 55.9757Z" fill="white"/>
<path d="M27.4576 40.8486C37.6685 40.8486 45.946 32.571 45.946 22.3602C45.946 12.1493 37.6685 3.8717 27.4576 3.8717C17.2467 3.8717 8.96912 12.1493 8.96912 22.3602C8.96912 32.571 17.2467 40.8486 27.4576 40.8486Z" fill="#FFDC0A"/>
<path d="M27.4772 3.86611C32.2299 3.86323 36.8018 5.68824 40.246 8.96325C43.6902 12.2383 45.743 16.7124 45.9794 21.4593C46.2158 26.2061 44.6175 30.8621 41.5157 34.463C38.4138 38.064 34.0459 40.3341 29.3164 40.8034C24.5869 41.2726 19.858 39.9051 16.1091 36.9838C12.3601 34.0626 9.87809 29.8115 9.17707 25.1108C8.47605 20.41 9.60967 15.6197 12.3432 11.7317C15.0767 7.84377 19.2008 5.15596 23.8614 4.22486C25.052 3.98688 26.2631 3.86672 27.4772 3.86611ZM27.4772 3.58363C22.4951 3.57838 17.715 5.55249 14.1884 9.07166C10.6618 12.5908 8.67762 17.3668 8.67237 22.3489C8.66713 27.331 10.6412 32.1112 14.1604 35.6377C17.6796 39.1643 22.4556 41.1485 27.4377 41.1537C29.9045 41.1563 32.3478 40.673 34.6279 39.7314C36.908 38.7897 38.9803 37.4082 40.7265 35.6657C42.4727 33.9232 43.8586 31.8538 44.805 29.5757C45.7514 27.2976 46.2399 24.8553 46.2425 22.3885C46.2451 19.9216 45.7618 17.4783 44.8201 15.1982C43.8785 12.9181 42.497 10.8458 40.7545 9.09963C39.0119 7.35344 36.9425 5.96756 34.6644 5.02112C32.3863 4.07469 29.9441 3.58623 27.4772 3.58363Z" fill="#231F20"/>
<path d="M21.0519 22.5331C21.8469 22.379 22.1949 20.7246 21.8291 18.8379C21.4633 16.9512 20.5223 15.5467 19.7273 15.7009C18.9322 15.855 18.5842 17.5094 18.95 19.3961C19.3158 21.2828 20.2568 22.6872 21.0519 22.5331Z" fill="#231F20"/>
<path d="M32.9902 20.222C33.7852 20.0678 34.1332 18.4134 33.7674 16.5268C33.4017 14.6401 32.4606 13.2356 31.6656 13.3897C30.8706 13.5439 30.5226 15.1983 30.8884 17.0849C31.2542 18.9716 32.1952 20.3761 32.9902 20.222Z" fill="#231F20"/>
<path d="M19.627 36.2386C19.529 36.2385 19.434 36.2043 19.3582 36.142C19.2825 36.0797 19.2308 35.993 19.2118 35.8968C18.7796 33.7188 19.4943 31.4618 21.1892 29.5353C22.8841 27.6087 25.3417 26.2952 28.1382 25.7444C33.9376 24.5918 39.3725 27.2754 40.2567 31.7245C40.2784 31.8369 40.2546 31.9533 40.1905 32.0481C40.1264 32.1429 40.0273 32.2084 39.9149 32.2301C39.8025 32.2519 39.6861 32.2281 39.5913 32.164C39.4965 32.0999 39.431 32.0007 39.4093 31.8883C38.6183 27.8997 33.6297 25.5155 28.2879 26.5749C25.6806 27.0918 23.3841 28.3432 21.8248 30.0974C20.2655 31.8516 19.6581 33.8205 20.0366 35.7329C20.0582 35.843 20.0353 35.9572 19.9728 36.0504C19.9103 36.1436 19.8134 36.2082 19.7033 36.2301L19.627 36.2386Z" fill="#231F20"/>
<path d="M7.79844 32.1398L4.99816 26.4813C4.74144 25.9625 4.11279 25.7501 3.59404 26.0068L3.31808 26.1434C2.79933 26.4001 2.58691 27.0288 2.84364 27.5475L5.64392 33.206C5.90064 33.7247 6.52928 33.9372 7.04803 33.6804L7.32399 33.5439C7.84274 33.2871 8.05516 32.6585 7.79844 32.1398Z" fill="white"/>
<path d="M6.58771 33.9363C6.36443 33.9363 6.1456 33.8738 5.95592 33.756C5.76625 33.6382 5.61327 33.4698 5.51427 33.2696L2.71487 27.62C2.64511 27.4794 2.60372 27.3265 2.59308 27.1699C2.58244 27.0133 2.60275 26.8561 2.65285 26.7074C2.70296 26.5587 2.78187 26.4213 2.88509 26.303C2.9883 26.1848 3.11381 26.088 3.25442 26.0183L3.5369 25.8827C3.67688 25.8128 3.82934 25.7712 3.98547 25.7606C4.1416 25.7499 4.29829 25.7703 4.44649 25.8206C4.74681 25.922 4.99467 26.1384 5.13575 26.4223L7.93514 32.0719C8.00491 32.2125 8.04629 32.3655 8.05693 32.522C8.06758 32.6786 8.04727 32.8358 7.99716 32.9845C7.94706 33.1333 7.86815 33.2707 7.76493 33.3889C7.66171 33.5071 7.53622 33.6039 7.3956 33.6736L7.11312 33.8092C6.94972 33.8904 6.77016 33.9338 6.58771 33.9363ZM5.77698 33.1425C5.88375 33.3564 6.07092 33.5193 6.2975 33.5955C6.52409 33.6718 6.77165 33.6551 6.986 33.5493L7.26848 33.4137C7.48288 33.3074 7.64639 33.1205 7.72317 32.8939C7.79995 32.6672 7.78374 32.4194 7.67809 32.2047L4.87869 26.555C4.77106 26.3406 4.58331 26.1772 4.35609 26.1002C4.2437 26.0625 4.12496 26.0473 4.00668 26.0556C3.88841 26.0638 3.77292 26.0953 3.66684 26.1483L3.38436 26.2839C3.27792 26.3362 3.1829 26.409 3.10476 26.4982C3.02662 26.5874 2.96693 26.6912 2.92911 26.8036C2.89129 26.916 2.87611 27.0348 2.88443 27.1531C2.89275 27.2714 2.92441 27.3869 2.97758 27.4929L5.77698 33.1425Z" fill="#231F20"/>
<path d="M15.2505 25.3118C16.4686 25.0701 17.3315 24.2465 17.1779 23.4722C17.0243 22.6979 15.9123 22.266 14.6942 22.5077C13.4761 22.7493 12.6132 23.5729 12.7668 24.3472C12.9204 25.1216 14.0324 25.5534 15.2505 25.3118Z" fill="white"/>
<path d="M40.4343 20.4287C41.6524 20.1871 42.5154 19.3635 42.3618 18.5891C42.2082 17.8148 41.0962 17.383 39.8781 17.6246C38.66 17.8663 37.797 18.6898 37.9506 19.4642C38.1042 20.2385 39.2162 20.6703 40.4343 20.4287Z" fill="white"/>
<path d="M16.9266 17.592C16.9266 17.592 20.7853 15.8971 21.2684 13.3152L16.9266 17.592Z" fill="#68E1FD"/>
<path d="M16.9265 18.0156C16.8242 18.0231 16.7227 17.9932 16.6407 17.9315C16.5588 17.8698 16.502 17.7804 16.4809 17.68C16.4599 17.5796 16.476 17.4749 16.5262 17.3855C16.5765 17.296 16.6575 17.2279 16.7542 17.1936C16.791 17.1767 20.4265 15.5468 20.8502 13.2247C20.8606 13.1691 20.8819 13.1161 20.9127 13.0686C20.9436 13.0212 20.9836 12.9803 21.0303 12.9483C21.0769 12.9163 21.1295 12.8938 21.1849 12.8821C21.2402 12.8704 21.2974 12.8697 21.353 12.8801C21.4087 12.8905 21.4617 12.9118 21.5092 12.9426C21.5566 12.9735 21.5975 13.0135 21.6295 13.0602C21.6615 13.1068 21.684 13.1594 21.6957 13.2148C21.7074 13.2701 21.7081 13.3273 21.6977 13.3829C21.1807 16.14 17.2768 17.9027 17.1102 17.9676C17.0537 17.9982 16.9907 18.0147 16.9265 18.0156Z" fill="#231F20"/>
<path d="M35.1805 14.0864C35.1805 14.0864 30.9602 13.9847 29.5309 11.7898L35.1805 14.0864Z" fill="#68E1FD"/>
<path d="M35.1806 14.5072C34.9998 14.5072 30.723 14.3716 29.1919 12.0185C29.1544 11.9731 29.1268 11.9203 29.1109 11.8635C29.0949 11.8068 29.091 11.7473 29.0993 11.689C29.1077 11.6306 29.1281 11.5747 29.1593 11.5247C29.1905 11.4747 29.2318 11.4317 29.2805 11.3986C29.3293 11.3654 29.3844 11.3428 29.4423 11.3322C29.5003 11.3215 29.5599 11.3231 29.6172 11.3368C29.6745 11.3505 29.7284 11.376 29.7753 11.4116C29.8222 11.4473 29.8612 11.4924 29.8897 11.544C31.1778 13.5214 35.1495 13.6456 35.1919 13.6485C35.3042 13.6485 35.412 13.6931 35.4915 13.7726C35.5709 13.852 35.6156 13.9598 35.6156 14.0722C35.6156 14.1846 35.5709 14.2923 35.4915 14.3718C35.412 14.4513 35.3042 14.4959 35.1919 14.4959L35.1806 14.5072Z" fill="#231F20"/>
<path d="M7.55668 25.5494C7.55668 25.5494 7.45498 20.6822 8.58774 18.9082C9.72049 17.1343 12.1837 16.4761 11.6527 18.3856C11.1216 20.2952 9.67529 22.5805 9.67529 22.5805C9.67529 22.5805 10.7403 26.6624 9.41541 29.1002" fill="white"/>
<path d="M9.41253 29.2472C9.38797 29.2473 9.36374 29.2415 9.34191 29.2302C9.308 29.2117 9.28275 29.1805 9.27165 29.1435C9.26055 29.1065 9.26447 29.0666 9.28258 29.0325C10.5651 26.6738 9.54247 22.6569 9.53117 22.6173C9.52607 22.5979 9.52494 22.5776 9.52786 22.5577C9.53077 22.5378 9.53766 22.5187 9.54812 22.5015C9.56507 22.4789 10.9944 20.2106 11.5114 18.3462C11.6074 18.0072 11.6498 17.5722 11.3278 17.4281C10.7628 17.1767 9.44077 17.8462 8.71197 18.9874C7.61594 20.7021 7.70068 25.4986 7.70068 25.5466C7.70106 25.5656 7.6977 25.5844 7.69081 25.602C7.68391 25.6196 7.67361 25.6357 7.66049 25.6494C7.64738 25.663 7.6317 25.6739 7.61436 25.6815C7.59703 25.6891 7.57836 25.6932 7.55944 25.6935C7.52144 25.6936 7.48491 25.6789 7.45752 25.6525C7.43013 25.6262 7.41402 25.5903 7.41255 25.5523C7.41255 25.3517 7.32498 20.6202 8.46903 18.832C9.23456 17.6315 10.6837 16.8208 11.4492 17.1626C11.6809 17.2643 12.034 17.5665 11.7967 18.4224C11.3052 20.1936 10.0566 22.2416 9.8193 22.6032C9.95489 23.1455 10.7967 26.8404 9.53682 29.1709C9.52476 29.1935 9.50689 29.2125 9.48504 29.2259C9.46319 29.2393 9.43816 29.2467 9.41253 29.2472Z" fill="#231F20"/>
<path d="M46.0109 43.8713C46.0109 43.8713 45.2397 48.2187 45.1634 49.5717C45.0872 50.9248 43.0731 56.2073 40.4686 56.5265C37.8641 56.8457 41.7765 53.9191 41.7171 52.0067C41.6578 50.0943 40.1776 51.7864 39.6211 53.7723C39.0646 55.7581 38.0053 53.679 38.4912 51.8486C38.9771 50.0181 39.2341 49.9926 39.3923 48.4814C39.5505 46.9701 39.2878 42.1199 39.2878 42.1199L46.0109 43.8713Z" fill="white"/>
<path d="M40.124 56.693C39.7907 56.693 39.5845 56.6139 39.4856 56.4501C39.2653 56.0772 39.6918 55.4784 40.2822 54.645C40.8726 53.8117 41.5929 52.7976 41.5703 52.0151C41.5534 51.5208 41.4404 51.3315 41.3387 51.3202C40.9997 51.2807 40.172 52.3315 39.7568 53.8145C39.5167 54.662 39.1918 54.7778 38.9545 54.7157C38.3896 54.5659 37.9969 53.1309 38.3387 51.8146C38.5336 51.0716 38.6947 50.6168 38.8246 50.2524C39.0472 49.6813 39.1861 49.0809 39.237 48.47C39.3924 46.987 39.1325 42.1791 39.1297 42.1283C39.1282 42.1056 39.1323 42.0829 39.1417 42.0622C39.1511 42.0415 39.1654 42.0235 39.1834 42.0096C39.2011 41.9948 39.2222 41.9845 39.2449 41.9796C39.2675 41.9747 39.291 41.9753 39.3133 41.9814L46.0477 43.7299C46.0831 43.7393 46.1138 43.7616 46.1337 43.7924C46.1536 43.8233 46.1612 43.8604 46.155 43.8966C46.155 43.939 45.3838 48.2525 45.3076 49.5801C45.2313 50.9078 43.2031 56.3371 40.4856 56.6704C40.3657 56.6856 40.2449 56.6931 40.124 56.693ZM41.3217 51.0293H41.3726C41.6777 51.066 41.8415 51.3937 41.8613 52.0038C41.8867 52.8823 41.1607 53.9078 40.5195 54.8117C40.0929 55.4106 39.6127 56.0885 39.737 56.2976C39.7653 56.3428 39.8896 56.4445 40.4489 56.3767C42.9714 56.0688 44.9432 50.7807 45.0166 49.5604C45.09 48.34 45.7115 44.7271 45.8443 43.9757L39.4319 42.3091C39.48 43.2497 39.6692 47.148 39.528 48.4982C39.4728 49.1321 39.3282 49.755 39.0986 50.3485C38.9715 50.7072 38.8161 51.1536 38.6212 51.8852C38.302 53.1083 38.7003 54.3428 39.0308 54.4275C39.1382 54.4558 39.3133 54.2891 39.4771 53.7298C39.8444 52.4304 40.6777 51.0293 41.3217 51.0293Z" fill="#231F20"/>
<path d="M39.1991 43.1089L46.4762 45.0806C47.077 45.2434 47.6961 44.8883 47.8588 44.2875L47.898 44.143C48.0608 43.5422 47.7057 42.9231 47.1049 42.7603L39.8278 40.7887C39.227 40.6259 38.608 40.981 38.4452 41.5818L38.406 41.7263C38.2432 42.3271 38.5983 42.9461 39.1991 43.1089Z" fill="white"/>
<path d="M46.7821 45.2694C46.6695 45.2685 46.5575 45.2533 46.4488 45.2242L39.1664 43.2469C38.8406 43.1583 38.5633 42.944 38.3954 42.6511C38.2275 42.3582 38.1827 42.0106 38.2709 41.6847L38.3105 41.5407C38.398 41.2164 38.61 40.9397 38.9004 40.771C39.1909 40.6022 39.5362 40.555 39.8613 40.6396L47.1409 42.6169C47.3021 42.6605 47.4531 42.7354 47.5854 42.8373C47.7176 42.9393 47.8285 43.0663 47.9116 43.2111C47.9948 43.3559 48.0486 43.5156 48.07 43.6813C48.0914 43.8469 48.08 44.0151 48.0363 44.1762L47.9968 44.3231C47.9233 44.5924 47.7637 44.8301 47.5422 45C47.3208 45.1699 47.0499 45.2625 46.7708 45.2638L46.7821 45.2694ZM39.5393 40.8966C39.3238 40.8972 39.1144 40.9685 38.9434 41.0997C38.7724 41.2309 38.6493 41.4146 38.5929 41.6226L38.5534 41.7667C38.5196 41.8909 38.5106 42.0207 38.5269 42.1484C38.5433 42.2762 38.5847 42.3994 38.6487 42.5112C38.7127 42.6229 38.7981 42.721 38.9 42.7997C39.0019 42.8785 39.1184 42.9363 39.2427 42.97L46.5222 44.9474C46.6465 44.9812 46.7762 44.9902 46.904 44.9739C47.0317 44.9575 47.155 44.9162 47.2667 44.8522C47.3785 44.7881 47.4765 44.7027 47.5553 44.6008C47.634 44.4989 47.6919 44.3825 47.7256 44.2582L47.7651 44.1113C47.8 43.9857 47.8095 43.8544 47.7931 43.7251C47.7766 43.5958 47.7346 43.4711 47.6693 43.3582C47.6041 43.2454 47.517 43.1467 47.4132 43.0679C47.3093 42.9891 47.1908 42.9319 47.0646 42.8994L39.785 40.922C39.7008 40.9027 39.6144 40.8942 39.528 40.8966H39.5393Z" fill="#231F20"/>
<path d="M27.9236 51.1508C27.9236 51.1508 19.9519 49.5943 19.887 50.3711C19.822 51.148 20.1469 57.5095 20.1469 57.5095C20.1469 57.5095 12.5198 61.6083 13.695 62.1281C14.8701 62.6478 27.9236 60.2354 27.9236 60.2354V51.1508Z" fill="white"/>
<path d="M14.356 62.3427C14.113 62.3577 13.8692 62.3299 13.6357 62.2608C13.577 62.2393 13.5259 62.2011 13.4888 62.1509C13.4516 62.1007 13.43 62.0407 13.4266 61.9783C13.4266 61.7975 13.404 61.3258 16.7712 59.2749C18.1978 58.4077 19.6441 57.6168 19.9972 57.4247C19.9548 56.6111 19.6808 51.0971 19.7429 50.3626C19.747 50.3236 19.7592 50.2859 19.7786 50.2519C19.7981 50.2178 19.8244 50.1882 19.8559 50.1649C20.5932 49.5999 26.7315 50.7722 27.9519 51.0123C27.9855 51.0184 28.0159 51.0362 28.0377 51.0626C28.0594 51.089 28.071 51.1222 28.0705 51.1564V60.241C28.0705 60.2751 28.0586 60.308 28.037 60.3343C28.0154 60.3606 27.9853 60.3785 27.9519 60.3851C26.7541 60.5998 17.226 62.3427 14.356 62.3427ZM20.6893 50.292C20.322 50.292 20.0904 50.3259 20.0282 50.3994C19.9689 51.1451 20.291 57.4388 20.2938 57.5038C20.2944 57.5311 20.2876 57.5582 20.2742 57.582C20.2608 57.6059 20.2412 57.6257 20.2175 57.6394C17.0085 59.3653 13.7006 61.4557 13.7204 61.967C13.7204 61.967 13.7204 61.9839 13.7543 61.9952C14.6696 62.402 24.0706 60.7947 27.7796 60.1139V51.2722C24.9604 50.7242 21.9887 50.292 20.6893 50.292Z" fill="#231F20"/>
<path d="M28.7993 51.1508C28.7993 51.1508 36.771 49.5943 36.8359 50.3711C36.9009 51.148 36.576 57.5095 36.576 57.5095C36.576 57.5095 44.2031 61.6083 43.0279 62.1281C41.8528 62.6478 28.7993 60.2354 28.7993 60.2354V51.1508Z" fill="white"/>
<path d="M42.367 62.3427C39.4998 62.3427 29.9688 60.5998 28.7711 60.3795C28.7377 60.3729 28.7076 60.355 28.686 60.3287C28.6643 60.3024 28.6525 60.2694 28.6525 60.2354V51.1508C28.6525 51.1167 28.6643 51.0838 28.686 51.0575C28.7076 51.0312 28.7377 51.0133 28.7711 51.0067C29.9943 50.7694 36.1156 49.5943 36.867 50.1593C36.8994 50.1818 36.9263 50.2112 36.9458 50.2454C36.9654 50.2796 36.977 50.3177 36.98 50.357C37.0422 51.0943 36.7682 56.6083 36.7258 57.4191C38.0083 58.1111 43.3302 61.0433 43.2963 61.9727C43.293 62.035 43.2713 62.0951 43.2342 62.1453C43.197 62.1955 43.146 62.2337 43.0873 62.2551C42.8542 62.3262 42.6103 62.3559 42.367 62.3427ZM28.9434 60.1139C32.6524 60.7947 42.0534 62.3992 42.9687 61.9953C42.9913 61.9953 43.0054 61.9755 43.0054 61.967C43.0252 61.4557 39.7173 59.3654 36.5083 57.6394C36.4842 57.6262 36.4642 57.6065 36.4507 57.5825C36.4372 57.5586 36.4308 57.5313 36.432 57.5038C36.432 57.4388 36.754 51.1451 36.6919 50.3853C36.4094 50.0576 32.5535 50.5717 28.9434 51.2722V60.1139Z" fill="#231F20"/>
<path d="M7.94366 2.06112C7.47757 1.2617 6.39849 0.982038 5.50019 1.21367C4.6019 1.44531 3.85897 2.06112 3.21209 2.72213C3.00107 2.89884 2.85823 3.14356 2.80814 3.41421C2.79119 3.69669 3.05107 3.97917 3.30813 3.88878C2.06804 3.66844 1.04828 4.86334 0.503087 5.99609C0.220605 6.56106 0.00309502 7.21077 0.257329 7.77291C0.511563 8.33505 1.20082 8.62035 1.83358 8.68815C3.0385 8.81626 4.24556 8.46631 5.19511 7.71359C5.57277 8.08118 6.03771 8.34668 6.54622 8.48512C7.05473 8.62356 7.5901 8.63039 8.10198 8.50497C8.61385 8.37954 9.08542 8.12598 9.47232 7.76813C9.85923 7.41029 10.1488 6.95991 10.3137 6.45936C10.0764 6.60908 10.4493 6.91134 10.7261 6.92546C11.4012 6.96501 12.099 7.00173 12.7289 6.75315C14.1583 6.18818 14.3278 2.74755 13.373 1.6261C12.3617 0.431197 8.59902 0.493344 7.94366 2.06112Z" fill="white"/>
<path d="M2.33637 8.85476C2.16272 8.85521 1.98918 8.84577 1.8166 8.82651C0.983281 8.73329 0.36747 8.36889 0.12171 7.82652C-0.160772 7.18811 0.101938 6.47626 0.367471 5.92824C0.633004 5.38023 1.44938 3.91415 2.73467 3.72771C2.68021 3.62641 2.65479 3.51204 2.66122 3.39721C2.71167 3.09207 2.86884 2.81476 3.10472 2.61473C3.66968 2.02434 4.46628 1.31249 5.46062 1.0639C6.28547 0.860517 7.35042 1.0639 7.92669 1.77858C8.26849 1.25034 8.99165 0.868991 9.95491 0.719276C11.2007 0.524363 12.8108 0.736225 13.4803 1.52152C14.082 2.22773 14.291 3.83788 13.9549 5.19379C13.7345 6.06949 13.3193 6.67117 12.7797 6.88868C12.1102 7.15139 11.3673 7.10902 10.7148 7.0723C10.5597 7.05827 10.4118 7.00047 10.2882 6.90563C10.071 7.36217 9.74984 7.76153 9.35058 8.07174C8.95132 8.38196 8.485 8.59444 7.98892 8.69217C7.49284 8.7899 6.98078 8.77018 6.49369 8.63458C6.0066 8.49899 5.558 8.25128 5.18379 7.91127C4.36181 8.52571 3.36262 8.8568 2.33637 8.85476ZM3.01715 4.00172C2.00022 4.00172 1.13017 5.02995 0.633002 6.05536C0.395717 6.54688 0.152783 7.18529 0.390068 7.70788C0.67255 8.33782 1.52 8.49883 1.8505 8.53555C3.01773 8.66335 4.18801 8.32303 5.10469 7.58924C5.13138 7.56618 5.16547 7.55349 5.20074 7.55349C5.23601 7.55349 5.2701 7.56618 5.29678 7.58924C5.64169 7.93027 6.06546 8.18087 6.53048 8.31881C6.99549 8.45674 7.48737 8.47773 7.96244 8.37992C8.43752 8.28211 8.8811 8.06852 9.25381 7.75812C9.62652 7.44771 9.91683 7.05009 10.099 6.60055C10.0917 6.54475 10.1013 6.48806 10.1264 6.43773C10.1516 6.3874 10.1912 6.34573 10.2402 6.31807C10.2644 6.30039 10.2936 6.29087 10.3235 6.29087C10.3535 6.29087 10.3827 6.30039 10.4069 6.31807C10.4305 6.33605 10.4478 6.36101 10.4565 6.3894C10.4651 6.4178 10.4645 6.44819 10.4549 6.47626C10.4549 6.51581 10.4295 6.55535 10.4154 6.5949C10.5012 6.6832 10.615 6.73909 10.7374 6.75309C11.3617 6.78981 12.0679 6.82936 12.678 6.58925C13.1272 6.41129 13.4831 5.88305 13.678 5.10057C13.9888 3.85483 13.8023 2.32377 13.2628 1.69384C12.7232 1.0639 11.3419 0.80967 10.0029 1.00741C9.0086 1.16277 8.30804 1.57237 8.07923 2.11474C8.06896 2.14042 8.05151 2.1626 8.02896 2.17863C8.00642 2.19465 7.97974 2.20386 7.95211 2.20513C7.9252 2.20694 7.89832 2.20131 7.8744 2.18885C7.85049 2.17639 7.83046 2.15759 7.81652 2.13451C7.36455 1.35768 6.32501 1.15147 5.53406 1.34921C4.61035 1.57802 3.8646 2.25598 3.31658 2.81812C3.13223 2.97147 3.00487 3.18242 2.955 3.41698C2.95467 3.47156 2.967 3.52547 2.99102 3.57448C3.01503 3.6235 3.05009 3.66628 3.09342 3.69946C3.16969 3.69946 3.24879 3.69946 3.33071 3.72771C3.36206 3.73322 3.39071 3.74895 3.41217 3.77246C3.43363 3.79597 3.44671 3.82593 3.44935 3.85765C3.45191 3.88968 3.44391 3.92166 3.42656 3.9487C3.40922 3.97574 3.38348 3.99635 3.35331 4.00737C3.24254 4.04689 3.1206 4.04079 3.01433 3.99042L3.01715 4.00172Z" fill="#D1D3D4"/>
<path d="M10.26 6.60908C10.1002 6.60643 9.9407 6.59322 9.78262 6.56953C9.20353 6.48479 8.46908 6.25033 8.26004 5.60344C8.2484 5.56673 8.25165 5.52691 8.26909 5.49257C8.28652 5.45822 8.31675 5.4321 8.35326 5.41983C8.38997 5.40819 8.42979 5.41144 8.46413 5.42888C8.49848 5.44631 8.5246 5.47654 8.53687 5.51305C8.70636 6.04412 9.41821 6.22208 9.82499 6.2814C10.128 6.34221 10.4413 6.32766 10.7374 6.23903C10.9752 6.13355 11.183 5.97044 11.3419 5.76446C11.588 5.46832 11.7794 5.13064 11.9069 4.7673C11.9196 4.72984 11.9467 4.69897 11.9822 4.68149C12.0177 4.66401 12.0587 4.66134 12.0961 4.67408C12.1336 4.68681 12.1645 4.71391 12.182 4.7494C12.1994 4.7849 12.2021 4.82588 12.1894 4.86334C12.0514 5.26065 11.8417 5.62927 11.5707 5.9509C11.3815 6.19748 11.1326 6.39189 10.8476 6.51586C10.6593 6.58348 10.46 6.61511 10.26 6.60908Z" fill="#D1D3D4"/>
<path d="M40.7709 1.65721C40.3025 1.55286 39.8121 1.62422 39.3928 1.85773C38.9735 2.09124 38.6546 2.47063 38.4967 2.92381C38.3388 3.377 38.3529 3.87241 38.5362 4.31591C38.7196 4.75941 39.0595 5.12011 39.4913 5.32947C39.7158 5.39843 39.9276 5.50337 40.1184 5.6402C40.2437 5.77699 40.3501 5.92995 40.4348 6.095C41.028 7.04414 42.2935 7.42266 43.3895 7.1995C44.4856 6.97634 45.4234 6.24754 46.1522 5.39727C46.0601 5.48241 46.0053 5.60037 45.9995 5.72564C45.9936 5.85091 46.0374 5.97345 46.1211 6.06675C46.2999 6.24966 46.5307 6.37296 46.7822 6.41985C47.5533 6.62607 48.4093 6.70234 49.1211 6.33793C49.4746 6.17073 49.7594 5.88645 49.9272 5.53328C50.095 5.18011 50.1356 4.77976 50.042 4.40011C50.1832 4.88315 50.7934 4.68259 51.0024 4.46508C51.2849 4.1826 51.2567 3.36622 51.2087 3.01312C51.0674 1.92274 50.0476 0.781512 48.8556 0.874731C48.6187 0.92283 48.376 0.936152 48.1352 0.914278C47.7426 0.829534 47.494 0.445359 47.1353 0.261746C46.9197 0.168002 46.6839 0.130241 46.4498 0.15197C46.2157 0.173699 45.9909 0.254213 45.7963 0.386037C45.4061 0.649713 45.0696 0.985244 44.8048 1.37472C44.6409 0.9736 44.124 0.877556 43.6918 0.883205C42.5619 0.897329 41.9206 1.12897 41.1495 1.86059C41.0323 1.77719 40.9051 1.70886 40.7709 1.65721Z" fill="white"/>
<path d="M42.7567 7.4169C42.2778 7.43079 41.8031 7.32459 41.3758 7.10798C40.9485 6.89137 40.5823 6.57125 40.3104 6.17681C40.285 6.14008 40.2624 6.10054 40.2398 6.06099C40.1822 5.9315 40.0953 5.81715 39.986 5.72695C39.8767 5.63675 39.7479 5.57317 39.6098 5.54122L39.4375 5.4706C38.9582 5.25514 38.577 4.86791 38.369 4.38525C38.1611 3.9026 38.1415 3.35956 38.3142 2.86319C38.4868 2.36683 38.8392 1.95316 39.3018 1.70376C39.7644 1.45435 40.3036 1.38731 40.8132 1.51585C40.9265 1.55312 41.0325 1.60949 41.1268 1.68252C41.881 0.998912 42.5392 0.761627 43.6889 0.747503C44.2199 0.747503 44.6013 0.871795 44.8188 1.12603C45.0614 0.785099 45.365 0.49203 45.7143 0.261634C45.9304 0.116589 46.1798 0.0286075 46.4391 0.00588696C46.6984 -0.0168336 46.9592 0.026445 47.1973 0.131692C47.3531 0.21788 47.4982 0.322181 47.6295 0.442422C47.7457 0.585553 47.9012 0.691525 48.0769 0.747248C48.2526 0.802972 48.4408 0.806007 48.6182 0.755978L48.8385 0.730554C50.1295 0.626036 51.2001 1.84071 51.3526 2.99041C51.3526 3.03843 51.5023 4.16836 51.1012 4.56384C50.9919 4.66676 50.8605 4.74321 50.717 4.78729C50.5735 4.83137 50.4217 4.8419 50.2735 4.81807H50.2425C50.2322 5.16291 50.1275 5.49833 49.9397 5.78774C49.7519 6.07715 49.4883 6.30944 49.1775 6.45929C48.5306 6.78132 47.7086 6.81239 46.7369 6.55251C46.4623 6.50407 46.209 6.373 46.0109 6.17681C45.9506 6.10188 45.9063 6.01534 45.8809 5.92257C45.2191 6.63358 44.3623 7.13371 43.4177 7.36041C43.1998 7.40155 42.9784 7.42048 42.7567 7.4169ZM40.3273 1.74184C39.9465 1.74458 39.5751 1.86117 39.261 2.07662C38.9469 2.29206 38.7044 2.59652 38.5647 2.95086C38.4317 3.38287 38.4577 3.84821 38.638 4.26271C38.8183 4.67721 39.141 5.01349 39.5477 5.21072L39.7144 5.27569C39.8834 5.31983 40.0407 5.40068 40.1749 5.51248C40.3092 5.62429 40.4172 5.7643 40.4912 5.92257L40.5562 6.02992C41.0844 6.87736 42.2511 7.30109 43.3612 7.07227C44.3714 6.817 45.2733 6.24478 45.9346 5.43953C45.9691 5.37922 46.0163 5.32716 46.073 5.28699C46.1023 5.268 46.1373 5.26004 46.1719 5.26452C46.2065 5.269 46.2383 5.28564 46.2618 5.31145C46.2852 5.33727 46.2987 5.37058 46.2998 5.40543C46.301 5.44028 46.2897 5.4744 46.2679 5.50168L46.1747 5.60619C46.1649 5.63066 46.1582 5.65629 46.155 5.68246C46.1424 5.78956 46.1729 5.89726 46.2397 5.98189C46.4012 6.13026 46.6024 6.22841 46.8188 6.26438C47.7199 6.50731 48.4741 6.48189 49.0532 6.19376C49.377 6.0431 49.6385 5.78474 49.7931 5.46276C49.9476 5.14077 49.9857 4.77513 49.9007 4.42824C49.8953 4.4097 49.8936 4.39027 49.8957 4.37107C49.8979 4.35188 49.9038 4.33329 49.9131 4.31637C49.9224 4.29946 49.9349 4.28454 49.95 4.27247C49.9651 4.2604 49.9824 4.25142 50.0009 4.24604C50.0195 4.24066 50.0389 4.23899 50.0581 4.24112C50.0773 4.24325 50.0959 4.24914 50.1128 4.25845C50.1297 4.26776 50.1446 4.28031 50.1567 4.29539C50.1688 4.31047 50.1778 4.32778 50.1831 4.34632C50.1915 4.38904 50.2119 4.42847 50.242 4.45999C50.272 4.49151 50.3104 4.51382 50.3526 4.52429C50.4518 4.5354 50.5522 4.52528 50.6472 4.4946C50.7422 4.46392 50.8295 4.41337 50.9035 4.34632C51.1097 4.14011 51.1238 3.44521 51.0673 3.01866C50.9345 1.99607 49.9656 0.919817 48.8696 1.00739L48.6634 1.02998C48.4453 1.08592 48.216 1.08015 48.001 1.0133C47.786 0.946463 47.5938 0.821186 47.4459 0.651459C47.3329 0.543251 47.2078 0.448462 47.073 0.368977C46.8787 0.288019 46.6673 0.256483 46.4578 0.277187C46.2483 0.297891 46.0472 0.37019 45.8725 0.48762C45.5018 0.746301 45.1827 1.07205 44.9318 1.44806C44.916 1.46829 44.8952 1.48403 44.8714 1.49372C44.8477 1.5034 44.8218 1.5067 44.7964 1.50327C44.7709 1.49984 44.7469 1.48981 44.7265 1.47417C44.7062 1.45854 44.6903 1.43785 44.6804 1.41416C44.5335 1.05823 44.0024 1.01021 43.7058 1.01586C42.59 1.01586 41.994 1.25597 41.2567 1.95088C41.2334 1.97227 41.2038 1.98571 41.1724 1.98927C41.1409 1.99282 41.1091 1.9863 41.0816 1.97065L40.9658 1.89438C40.8989 1.84216 40.8247 1.80026 40.7454 1.77009C40.6078 1.743 40.4673 1.73351 40.3273 1.74184Z" fill="#D1D3D4"/>
<path d="M46.446 5.62876C46.3515 5.62737 46.2572 5.62077 46.1635 5.60898C45.7057 5.54001 45.2776 5.3405 44.9304 5.03438C44.5832 4.72825 44.3316 4.32849 44.2059 3.88302C44.2007 3.86465 44.1993 3.84545 44.2017 3.82653C44.204 3.80761 44.2101 3.78935 44.2195 3.77279C44.229 3.75624 44.2417 3.74173 44.2568 3.7301C44.2719 3.71847 44.2891 3.70996 44.3076 3.70505C44.345 3.69557 44.3847 3.70123 44.418 3.72079C44.4513 3.74035 44.4756 3.77225 44.4855 3.80957C44.5903 4.20321 44.8094 4.55699 45.115 4.82629C45.4206 5.09558 45.7992 5.26832 46.2029 5.32271C46.6066 5.3771 47.0174 5.31071 47.3834 5.13191C47.7494 4.95311 48.0543 4.66991 48.2595 4.31804C48.2691 4.3013 48.282 4.28667 48.2974 4.27501C48.3127 4.26335 48.3303 4.2549 48.349 4.25015C48.3677 4.24541 48.3872 4.24448 48.4063 4.2474C48.4253 4.25033 48.4436 4.25706 48.4601 4.26719C48.4925 4.28713 48.516 4.31889 48.5254 4.35578C48.5349 4.39267 48.5297 4.43181 48.5109 4.46493C48.2952 4.81949 47.992 5.11271 47.6304 5.3165C47.2688 5.52028 46.861 5.6278 46.446 5.62876Z" fill="#D1D3D4"/>
<path d="M40.5195 3.21922C40.4839 3.01599 40.5047 2.8069 40.5795 2.61463C40.6543 2.42235 40.7803 2.25423 40.9439 2.12849C41.1074 2.00276 41.3023 1.9242 41.5074 1.90136C41.7124 1.87851 41.9198 1.91224 42.107 1.99889" fill="white"/>
<path d="M40.5195 3.35198C40.4853 3.35252 40.452 3.34088 40.4256 3.31914C40.3992 3.29741 40.3814 3.267 40.3754 3.23334C40.3343 3.00353 40.3571 2.76683 40.4413 2.5491C40.5256 2.33136 40.668 2.14097 40.8532 1.99871C41.0383 1.85644 41.2589 1.76778 41.491 1.74241C41.7231 1.71704 41.9577 1.75593 42.1692 1.85483C42.2019 1.87278 42.2266 1.90253 42.2382 1.93802C42.2498 1.97351 42.2474 2.01208 42.2316 2.0459C42.2157 2.07971 42.1876 2.10623 42.1529 2.12006C42.1183 2.13389 42.0796 2.134 42.0449 2.12036C41.882 2.04382 41.7012 2.0136 41.5222 2.03302C41.3433 2.05244 41.1732 2.12075 41.0305 2.23046C40.8878 2.34016 40.7781 2.48703 40.7134 2.65496C40.6487 2.8229 40.6314 3.00541 40.6635 3.18249C40.6701 3.22068 40.6613 3.25992 40.6391 3.29167C40.6169 3.32341 40.583 3.34509 40.5449 3.35198H40.5195Z" fill="#D1D3D4"/>
<path d="M5.55665 9.79542C5.55593 9.75818 5.54082 9.72268 5.51448 9.69634C5.48815 9.67001 5.45264 9.6549 5.41541 9.65417C5.37795 9.65417 5.34203 9.66906 5.31554 9.69554C5.28905 9.72203 5.27417 9.75796 5.27417 9.79542C5.32219 10.222 5.37304 10.6429 5.42106 11.0751C5.42178 11.1123 5.4369 11.1478 5.46323 11.1741C5.48956 11.2005 5.52507 11.2156 5.5623 11.2163C5.59954 11.2156 5.63504 11.2005 5.66138 11.1741C5.68771 11.1478 5.70282 11.1123 5.70354 11.0751C5.65552 10.6485 5.60467 10.222 5.55665 9.79542Z" fill="#D1D3D4"/>
<path d="M8.36458 11.64C8.35531 11.6238 8.34295 11.6097 8.3282 11.5983C8.31346 11.5869 8.29662 11.5786 8.27866 11.5738C8.26069 11.5689 8.24194 11.5676 8.22348 11.57C8.20503 11.5724 8.18722 11.5784 8.17108 11.5877C8.15495 11.597 8.14079 11.6093 8.12943 11.6241C8.11807 11.6388 8.10973 11.6557 8.10488 11.6736C8.10002 11.6916 8.09876 11.7103 8.10115 11.7288C8.10354 11.7473 8.10955 11.7651 8.11882 11.7812C8.15535 11.8345 8.18657 11.8913 8.21204 11.9507V11.9733V12.0072C8.21204 12.0383 8.23464 12.0693 8.24312 12.1004C8.26062 12.1596 8.27383 12.2201 8.28266 12.2812V12.3066C8.28266 12.3066 8.28266 12.332 8.28266 12.3433C8.28266 12.3546 8.28266 12.414 8.28266 12.4479C8.28266 12.4853 8.29754 12.5212 8.32403 12.5477C8.35052 12.5742 8.38645 12.5891 8.42391 12.5891C8.46137 12.5891 8.49729 12.5742 8.52378 12.5477C8.55026 12.5212 8.56515 12.4853 8.56515 12.4479C8.57217 12.1654 8.50288 11.8863 8.36458 11.64Z" fill="#D1D3D4"/>
<path d="M10.6244 10.5016C10.5877 10.2898 10.5538 10.0779 10.5171 9.86603C10.5072 9.83019 10.4835 9.7997 10.4513 9.78118C10.419 9.76267 10.3807 9.75764 10.3448 9.76717C10.3091 9.77831 10.279 9.80262 10.2607 9.83516C10.2423 9.8677 10.237 9.90601 10.2459 9.94231C10.2798 10.1542 10.3165 10.366 10.3504 10.5779C10.361 10.614 10.3852 10.6445 10.4179 10.6629C10.4506 10.6814 10.4892 10.6864 10.5256 10.6768C10.5612 10.6656 10.5913 10.6413 10.6097 10.6088C10.628 10.5762 10.6333 10.5379 10.6244 10.5016Z" fill="#D1D3D4"/>
<path d="M43.2821 9.76144L43.0675 9.01851C43.0626 8.99997 43.0542 8.98255 43.0426 8.96726C43.0311 8.95197 43.0166 8.9391 43.0001 8.9294C42.9836 8.91969 42.9653 8.91334 42.9463 8.9107C42.9273 8.90805 42.908 8.90918 42.8895 8.914C42.8709 8.91882 42.8535 8.92725 42.8382 8.9388C42.8229 8.95035 42.8101 8.96481 42.8004 8.98133C42.7907 8.99786 42.7843 9.01613 42.7817 9.03511C42.779 9.0541 42.7801 9.07341 42.785 9.09196L42.9968 9.83489C43.0066 9.87235 43.0308 9.9044 43.0642 9.92401C43.0975 9.94361 43.1373 9.94915 43.1748 9.93941C43.2123 9.92967 43.2443 9.90545 43.2639 9.87207C43.2835 9.8387 43.2891 9.7989 43.2793 9.76144H43.2821Z" fill="#D1D3D4"/>
<path d="M46.2172 10.6117C46.1799 10.6124 46.1444 10.6275 46.1181 10.6539C46.0918 10.6802 46.0767 10.7157 46.0759 10.7529V11.6004C46.0759 11.6378 46.0908 11.6738 46.1173 11.7003C46.1438 11.7267 46.1797 11.7416 46.2172 11.7416C46.2544 11.7409 46.2899 11.7258 46.3162 11.6995C46.3426 11.6731 46.3577 11.6376 46.3584 11.6004V10.7529C46.3577 10.7157 46.3426 10.6802 46.3162 10.6539C46.2899 10.6275 46.2544 10.6124 46.2172 10.6117Z" fill="#D1D3D4"/>
<path d="M49.0222 10.7529C49.0208 10.7159 49.0055 10.6808 48.9793 10.6546C48.9531 10.6284 48.918 10.6131 48.8809 10.6117C48.8103 10.6117 48.7284 10.6767 48.7397 10.7529L48.9007 12.0298C48.9007 12.0672 48.9156 12.1031 48.9421 12.1296C48.9686 12.1561 49.0045 12.171 49.042 12.171C49.0794 12.171 49.1153 12.1561 49.1418 12.1296C49.1683 12.1031 49.1832 12.0672 49.1832 12.0298L49.0222 10.7529Z" fill="#D1D3D4"/>
<path d="M47.7002 16.9762C47.663 16.9769 47.6275 16.992 47.6011 17.0184C47.5748 17.0447 47.5597 17.0802 47.559 17.1174V17.6457C47.559 17.6831 47.5738 17.7191 47.6003 17.7455C47.6268 17.772 47.6627 17.7869 47.7002 17.7869C47.7377 17.7869 47.7736 17.772 47.8001 17.7455C47.8266 17.7191 47.8414 17.6831 47.8414 17.6457V17.1174C47.8414 17.08 47.8266 17.0441 47.8001 17.0176C47.7736 16.9911 47.7377 16.9762 47.7002 16.9762Z" fill="#D1D3D4"/>
<path d="M50.6013 19.9392C50.4939 19.5861 50.3894 19.233 50.2821 18.8799C50.2709 18.8443 50.2466 18.8142 50.2141 18.7958C50.1815 18.7775 50.1432 18.7722 50.1069 18.7811C50.0716 18.7916 50.0418 18.8155 50.0239 18.8477C50.0059 18.8799 50.0013 18.9178 50.0109 18.9534C50.1154 19.3093 50.2228 19.6624 50.3301 20.0155C50.3351 20.0341 50.3437 20.0514 50.3554 20.0667C50.3672 20.0819 50.3818 20.0946 50.3984 20.1042C50.4151 20.1138 50.4335 20.12 50.4525 20.1225C50.4716 20.1249 50.4909 20.1236 50.5095 20.1186C50.528 20.1136 50.5454 20.105 50.5606 20.0933C50.5758 20.0816 50.5886 20.0669 50.5982 20.0503C50.6078 20.0336 50.614 20.0153 50.6164 19.9962C50.6189 19.9771 50.6176 19.9578 50.6126 19.9392H50.6013Z" fill="#D1D3D4"/>
<path d="M3.49452 13.0891C3.49379 13.0519 3.47868 13.0164 3.45235 12.99C3.42602 12.9637 3.39051 12.9486 3.35328 12.9479C3.31582 12.9479 3.27989 12.9628 3.2534 12.9892C3.22692 13.0157 3.21204 13.0517 3.21204 13.0891C3.24593 13.4055 3.27983 13.7247 3.31655 14.0439C3.31655 14.0814 3.33143 14.1173 3.35792 14.1438C3.38441 14.1703 3.42033 14.1851 3.45779 14.1851C3.49503 14.1844 3.53053 14.1693 3.55687 14.143C3.5832 14.1166 3.59831 14.0811 3.59904 14.0439C3.56231 13.7247 3.52842 13.4055 3.49452 13.0891Z" fill="#D1D3D4"/>
<path d="M4.87868 19.202C4.77159 18.7988 4.74282 18.3788 4.79394 17.9647C4.79394 17.9273 4.77905 17.8913 4.75257 17.8649C4.72608 17.8384 4.69015 17.8235 4.65269 17.8235C4.61524 17.8235 4.57931 17.8384 4.55282 17.8649C4.52633 17.8913 4.51145 17.9273 4.51145 17.9647C4.45893 18.4045 4.49056 18.8503 4.60467 19.2783C4.61479 19.3146 4.63892 19.3454 4.67177 19.364C4.70461 19.3825 4.74347 19.3873 4.77981 19.3771C4.81615 19.367 4.84698 19.3429 4.86552 19.31C4.88406 19.2772 4.8888 19.2383 4.87868 19.202Z" fill="#D1D3D4"/>
<path d="M6.34192 14.3236C6.30469 14.3243 6.26918 14.3394 6.24285 14.3658C6.21652 14.3921 6.20141 14.4276 6.20068 14.4648V15.1004C6.20068 15.1379 6.21557 15.1738 6.24205 15.2003C6.26854 15.2268 6.30447 15.2417 6.34192 15.2417C6.37938 15.2417 6.41531 15.2268 6.4418 15.2003C6.46829 15.1738 6.48317 15.1379 6.48317 15.1004V14.4648C6.48244 14.4276 6.46733 14.3921 6.441 14.3658C6.41466 14.3394 6.37916 14.3243 6.34192 14.3236Z" fill="#D1D3D4"/>
</svg>
